<svg width="28" height="27" viewBox="0 0 28 27" fill="none" xmlns="http://www.w3.org/2000/svg">
<path d="M14 2.25C12.5226 2.25 11.0597 2.54099 9.69481 3.10636C8.3299 3.67172 7.08971 4.50039 6.04505 5.54505C3.93526 7.65483 2.75 10.5163 2.75 13.5C2.75 18.4725 5.97875 22.6912 10.445 24.1875C11.0075 24.2775 11.1875 23.9287 11.1875 23.625V21.7237C8.07125 22.3988 7.4075 20.2162 7.4075 20.2162C6.89 18.9112 6.15875 18.5625 6.15875 18.5625C5.135 17.865 6.2375 17.8875 6.2375 17.8875C7.3625 17.9662 7.95875 19.0462 7.95875 19.0462C8.9375 20.7563 10.5912 20.25 11.2325 19.98C11.3337 19.2488 11.6263 18.7537 11.9412 18.4725C9.44375 18.1912 6.8225 17.2238 6.8225 12.9375C6.8225 11.6888 7.25 10.6875 7.98125 9.88875C7.86875 9.6075 7.475 8.4375 8.09375 6.91875C8.09375 6.91875 9.03875 6.615 11.1875 8.06625C12.0763 7.81875 13.0437 7.695 14 7.695C14.9563 7.695 15.9237 7.81875 16.8125 8.06625C18.9613 6.615 19.9062 6.91875 19.9062 6.91875C20.525 8.4375 20.1313 9.6075 20.0188 9.88875C20.75 10.6875 21.1775 11.6888 21.1775 12.9375C21.1775 17.235 18.545 18.18 16.0363 18.4613C16.4413 18.81 16.8125 19.4963 16.8125 20.5425V23.625C16.8125 23.9287 16.9925 24.2887 17.5662 24.1875C22.0325 22.68 25.25 18.4725 25.25 13.5C25.25 12.0226 24.959 10.5597 24.3936 9.19481C23.8283 7.8299 22.9996 6.58971 21.955 5.54505C20.9103 4.50039 19.6701 3.67172 18.3052 3.10636C16.9403 2.54099 15.4774 2.25 14 2.25Z" fill="#5AA7FF"/>
</svg>
