<svg width="24" height="25" viewBox="0 0 24 25" fill="none" xmlns="http://www.w3.org/2000/svg">
<path d="M16.42 8.45012C18.86 10.8901 18.86 14.8501 16.42 17.2901C13.98 19.7301 10.02 19.7301 7.58 17.2901C5.14 14.8501 5.14 10.8901 7.58 8.45012C10.02 6.01012 13.98 6.01012 16.42 8.45012Z" fill="#5AA7FF"/>
<path d="M8.25003 22.8901C8.16003 22.8901 8.06003 22.8701 7.97003 22.8401C5.72003 21.9401 3.90003 20.3501 2.68003 18.2501C1.50003 16.2001 1.03003 13.8801 1.34003 11.5201C1.39003 11.1101 1.78003 10.8201 2.18003 10.8701C2.59003 10.9201 2.88003 11.3001 2.83003 11.7101C2.57003 13.7401 2.97003 15.7401 3.98003 17.5001C5.02003 19.3001 6.59003 20.6701 8.52003 21.4401C8.90003 21.6001 9.09003 22.0301 8.94003 22.4201C8.83003 22.7101 8.54003 22.8901 8.25003 22.8901Z" fill="#5AA7FF"/>
<path d="M5.84998 5.73011C5.62998 5.73011 5.40998 5.63011 5.25998 5.44011C4.99998 5.12011 5.05998 4.65011 5.38998 4.39011C7.28998 2.90011 9.57998 2.11011 12 2.11011C14.36 2.11011 16.61 2.87011 18.5 4.31011C18.83 4.56011 18.89 5.03011 18.64 5.36011C18.39 5.69011 17.92 5.75011 17.59 5.50011C15.96 4.26011 14.03 3.61011 12 3.61011C9.91998 3.61011 7.94998 4.29011 6.30998 5.57011C6.16998 5.68011 6.00998 5.73011 5.84998 5.73011Z" fill="#5AA7FF"/>
<path d="M15.75 22.8901C15.45 22.8901 15.17 22.7101 15.05 22.4201C14.9 22.0401 15.08 21.6001 15.47 21.4401C17.4 20.6601 18.97 19.3001 20.01 17.5001C21.03 15.7401 21.43 13.7401 21.16 11.7201C21.11 11.3101 21.4 10.9301 21.81 10.8801C22.21 10.8301 22.6 11.1201 22.65 11.5301C22.95 13.8801 22.49 16.2101 21.31 18.2601C20.1 20.3601 18.27 21.9401 16.02 22.8501C15.94 22.8701 15.85 22.8901 15.75 22.8901Z" fill="#5AA7FF"/>
</svg>
