<svg width="20" height="19" viewBox="0 0 20 19" fill="none" xmlns="http://www.w3.org/2000/svg">
<path fill-rule="evenodd" clip-rule="evenodd" d="M7.778 18.5H12.222C15.343 18.5 16.904 18.5 18.025 17.765C18.5088 17.4482 18.9254 17.0391 19.251 16.561C20 15.461 20 13.928 20 10.864C20 7.80005 20 6.26705 19.251 5.16705C18.9254 4.68904 18.5088 4.27991 18.025 3.96305C17.305 3.49005 16.403 3.32105 15.022 3.26105C14.363 3.26105 13.796 2.77105 13.667 2.13605C13.5684 1.67092 13.3123 1.25408 12.9418 0.955997C12.5714 0.657912 12.1095 0.496855 11.634 0.500047H8.366C7.378 0.500047 6.527 1.18505 6.333 2.13605C6.204 2.77105 5.637 3.26105 4.978 3.26105C3.598 3.32105 2.696 3.49105 1.975 3.96305C1.49154 4.28001 1.07527 4.68914 0.75 5.16705C0 6.26705 0 7.79905 0 10.864C0 13.929 5.96046e-08 15.46 0.749 16.561C1.073 17.037 1.489 17.446 1.975 17.765C3.096 18.5 4.657 18.5 7.778 18.5ZM10 6.77305C7.699 6.77305 5.833 8.60405 5.833 10.863C5.833 13.122 7.7 14.956 10 14.956C12.3 14.956 14.167 13.124 14.167 10.865C14.167 8.60605 12.3 6.77305 10 6.77305ZM10 8.40905C8.62 8.40905 7.5 9.50805 7.5 10.864C7.5 12.219 8.62 13.318 10 13.318C11.38 13.318 12.5 12.219 12.5 10.864C12.5 9.50905 11.38 8.40905 10 8.40905ZM14.722 7.59105C14.722 7.13905 15.095 6.77305 15.556 6.77305H16.666C17.126 6.77305 17.5 7.13905 17.5 7.59105C17.4979 7.80994 17.409 8.01905 17.2528 8.17243C17.0966 8.32581 16.8859 8.41091 16.667 8.40905H15.556C15.4475 8.4101 15.3399 8.38978 15.2393 8.34924C15.1387 8.30871 15.047 8.24874 14.9696 8.17278C14.8921 8.09683 14.8304 8.00636 14.7879 7.90654C14.7454 7.80673 14.723 7.69952 14.722 7.59105Z" fill="#4A3AFF"/>
</svg>
