<svg width="50" height="57" viewBox="0 0 50 57" fill="none" xmlns="http://www.w3.org/2000/svg">
<path d="M24.8826 55.1897L4.53457 50.2224L0 5.5H49.8262L45.2869 50.2156L24.8826 55.1897Z" fill="#2380D8"/>
<path d="M40.3369 51.5221L44.2158 13.3105H23.8492V55.5415L40.3369 51.5221Z" fill="#2380D8"/>
<path d="M9.33145 29.8972L9.89043 35.3822H23.8492V29.8972H9.33145ZM8.20801 18.7954L8.775 24.2804H23.8492V18.7954H8.20801ZM23.8492 44.1424L23.8219 44.1488L16.875 42.4993L16.4309 38.1248H10.1691L11.043 46.7371L23.8205 49.856L23.8492 49.8492V44.1424Z" fill="#EBEBEB"/>
<path d="M38.3272 29.8972L39.4532 18.7954H23.8278V24.2804H32.6172L32.0496 29.8972H23.8278V35.3822H31.5088L30.7846 42.4959L23.8276 44.1471V49.8535L36.6153 46.7371L36.709 45.8104L38.175 31.3701L38.3272 29.8972Z" fill="white"/>
</svg>
