<svg width="50" height="50" viewBox="0 0 50 50" fill="none" xmlns="http://www.w3.org/2000/svg">
<path d="M42.6928 14.0104C43.2262 13.3146 44.0512 12.9062 44.9283 12.9062H45.6366L36.4866 24.8708L45.8324 37.0896H45.1241C44.6917 37.0898 44.265 36.9902 43.8773 36.7987C43.4896 36.6072 43.1513 36.3289 42.8887 35.9854L35.4387 26.2437L27.9866 35.9854C27.7241 36.3286 27.3862 36.6068 26.9989 36.7983C26.6115 36.9898 26.1853 37.0894 25.7533 37.0896H25.0449L34.3887 24.8708L25.2408 12.9062H25.9491C26.8241 12.9062 27.6512 13.3146 28.1824 14.0104L35.4366 23.4979L42.6928 14.0104Z" fill="black"/>
<path fill-rule="evenodd" clip-rule="evenodd" d="M11.5889 35.7208C15.5973 37.1833 19.7889 35.525 21.9202 32.2896C22.3368 31.6542 23.0243 31.2521 23.7868 31.2521H24.3181C22.3598 36.3292 16.5681 39.2854 11.0618 37.3042C6.84727 35.7875 4.16602 31.6229 4.16602 27.1437V22.5C4.16785 21.0468 4.47312 19.61 5.06226 18.2816C5.65141 16.9532 6.51145 15.7625 7.58732 14.7857C8.6632 13.8088 9.9312 13.0674 11.3101 12.6089C12.6891 12.1504 14.1486 11.9848 15.5952 12.1229C20.9973 12.6292 25.0139 17.3792 25.0139 22.8042V26.25H5.83477V27.175C5.83477 30.9291 8.06185 34.4354 11.5889 35.7208ZM14.5889 13.7417C12.2685 13.7461 10.0444 14.6698 8.40367 16.3106C6.7629 17.9513 5.83917 20.1754 5.83477 22.4958V24.5833H23.3473V22.5C23.344 20.1785 22.4204 17.953 20.7791 16.3113C19.1378 14.6696 16.9125 13.7455 14.591 13.7417" fill="black"/>
</svg>
