<svg width="50" height="51" viewBox="0 0 50 51" fill="none" xmlns="http://www.w3.org/2000/svg">
<g clip-path="url(#clip0_7_620)">
<path d="M4.18669 45.2625L0 0.583496L50 0.673281L45.573 45.2625L25.1887 50.4165L4.18669 45.2625Z" fill="#E1744C"/>
<path d="M25.1887 46.1013V4.83838L45.779 4.89824L42.1073 41.8159L25.1887 46.1013Z" fill="#E1744C"/>
<path d="M22.9839 9.73779H17.5403V37.2013L13.3064 36.4972V32.8001L8.26611 32.0959V40.3702L22.9839 43.7151V9.73779ZM27.0673 9.73779H42.1371L41.129 15.0016H32.8201V23.6396H41.129L40.121 41.0744L27.0673 43.7151V38.2576L35.8871 35.6169L36.3964 28.3989L27.0673 29.5784V9.73779Z" fill="white"/>
</g>
<defs>
<clipPath id="clip0_7_620">
<rect width="50" height="50" fill="white" transform="translate(0 0.5)"/>
</clipPath>
</defs>
</svg>
