<svg width="332" height="282" viewBox="0 0 332 282" fill="none" xmlns="http://www.w3.org/2000/svg">
<path d="M260.79 143.327C300.119 143.327 332.001 111.445 332.001 72.1165C332.001 32.7882 300.119 0.90625 260.79 0.90625C221.462 0.90625 189.58 32.7882 189.58 72.1165C189.58 111.445 221.462 143.327 260.79 143.327Z" fill="#E5F1FF"/>
<path d="M106.738 251.664C122.992 235.41 122.992 209.058 106.738 192.804C90.4839 176.55 64.1313 176.55 47.8774 192.804C31.6236 209.058 31.6236 235.41 47.8774 251.664C64.1313 267.918 90.4839 267.918 106.738 251.664Z" fill="#E5F1FF"/>
<path d="M76.7547 24.6455C55.7401 24.6455 38.7051 41.6814 38.7051 62.696C38.7051 83.7106 55.741 100.746 76.7547 100.746C97.7693 100.746 114.805 83.7106 114.805 62.696C114.804 41.6814 97.7685 24.6455 76.7547 24.6455ZM76.7547 87.023C63.3192 87.023 52.4277 76.1315 52.4277 62.696C52.4277 49.2604 63.3192 38.369 76.7547 38.369C90.1902 38.369 101.082 49.2604 101.082 62.696C101.082 76.1315 90.1894 87.023 76.7547 87.023Z" fill="#A9CCEA"/>
<path d="M220.509 267.916C220.509 270.328 218.554 272.283 216.143 272.283H105.735C103.324 272.283 101.369 270.328 101.369 267.916C101.369 265.505 103.324 263.55 105.735 263.55H144.929L150.335 253.57H159.692H162.187H171.543L176.949 263.55H216.143C218.554 263.55 220.509 265.505 220.509 267.916Z" fill="#0F3157"/>
<path d="M169.074 244.525H150.984V249.828H169.074V244.525Z" fill="#4A3AFF"/>
<path d="M169.074 235.792H150.984V241.094H169.074V235.792Z" fill="#4A3AFF"/>
<path d="M304.056 217.849C300.909 219.057 297.492 219.719 293.921 219.719C278.298 219.719 265.633 207.054 265.633 191.43C265.633 175.807 278.297 163.142 293.921 163.142C309.544 163.142 322.209 175.807 322.209 191.43C322.209 195.617 321.299 199.59 319.668 203.165" stroke="#FF4D6B" stroke-width="1.1276" stroke-miterlimit="10" stroke-linecap="round" stroke-linejoin="round"/>
<path d="M224.183 58.626H219.666C218.729 54.6133 217.151 50.8487 215.037 47.4475L218.23 44.2545C219.607 42.8779 219.607 40.6459 218.23 39.2693L211.136 32.1748C209.759 30.7982 207.527 30.7982 206.15 32.1748L202.958 35.3669C199.557 33.2535 195.793 31.6753 191.78 30.7385V26.2221C191.78 24.2755 190.202 22.6973 188.255 22.6973H178.222C176.276 22.6973 174.697 24.2755 174.697 26.2221V30.7385C170.685 31.6753 166.92 33.2543 163.519 35.3669L160.326 32.1748C158.949 30.7982 156.717 30.7982 155.341 32.1748L148.247 39.2693C146.871 40.6459 146.871 42.8779 148.247 44.2545L151.44 47.4475C149.327 50.8478 147.748 54.6125 146.811 58.626H142.294C140.348 58.626 138.77 60.2042 138.77 62.1509V72.1835C138.77 74.1301 140.348 75.7084 142.294 75.7084H146.811C147.748 79.7211 149.327 83.4857 151.439 86.8869L148.247 90.0799C146.871 91.4564 146.871 93.6885 148.247 95.0651L155.341 102.16C156.717 103.536 158.949 103.536 160.326 102.16L163.519 98.9675C166.919 101.081 170.684 102.659 174.697 103.597V108.113C174.697 110.06 176.276 111.638 178.222 111.638H188.255C190.202 111.638 191.78 110.06 191.78 108.113V103.597C195.793 102.659 199.557 101.081 202.958 98.9675L206.151 102.16C207.528 103.536 209.76 103.536 211.137 102.16L218.231 95.0651C219.608 93.6885 219.608 91.4564 218.231 90.0799L215.038 86.8869C217.151 83.4866 218.73 79.7219 219.667 75.7084H224.184C226.13 75.7084 227.709 74.1301 227.709 72.1835V62.1509C227.708 60.2034 226.13 58.626 224.183 58.626ZM183.239 85.0631C173.356 85.0631 165.344 77.0509 165.344 67.1668C165.344 57.2835 173.356 49.2713 183.239 49.2713C193.122 49.2713 201.135 57.2835 201.135 67.1668C201.135 77.0509 193.123 85.0631 183.239 85.0631Z" fill="#A9A2FF"/>
<path d="M36.6614 233.409C31.4065 233.409 27.1465 229.149 27.1465 223.893V74.9815C27.1465 69.7258 31.4065 65.4658 36.6622 65.4658H285.216C290.471 65.4658 294.732 69.7258 294.732 74.9807V223.893C294.732 229.147 290.472 233.408 285.216 233.408H36.6614V233.409Z" fill="#170F6B"/>
<path d="M74.2603 86.2432H46.6582V92.3253H74.2603V86.2432Z" fill="#284D89"/>
<path d="M107.477 86.2432H79.875V92.3253H107.477V86.2432Z" fill="#284D89"/>
<path d="M191.686 86.2432H164.084V92.3253H191.686V86.2432Z" fill="#284D89"/>
<path d="M275.895 86.2432H248.293V92.3253H275.895V86.2432Z" fill="#284D89"/>
<path d="M160.575 86.2432H111.219V92.3253H160.575V86.2432Z" fill="#4A3AFF"/>
<path d="M244.315 86.2432H194.959V92.3253H244.315V86.2432Z" fill="#2889DB"/>
<path d="M51.6487 81.4087H46.8145V84.3718H51.6487V81.4087Z" fill="#2889DB"/>
<path d="M97.2616 97.3154H46.8145V100.279H97.2616V97.3154Z" fill="white"/>
<path d="M61.785 102.54H46.8145V105.503H61.785V102.54Z" fill="white"/>
<path d="M100.225 212.089H53.4423C49.954 212.089 47.127 209.261 47.127 205.774V121.097C47.127 117.608 49.9548 114.781 53.4423 114.781H100.225C103.713 114.781 106.541 117.609 106.541 121.097V205.774C106.541 209.261 103.713 212.089 100.225 212.089Z" fill="#284D89"/>
<path d="M74.4941 129.05H54.6113V132.091H74.4941V129.05Z" fill="white"/>
<path d="M74.4941 135.833H54.6113V138.875H74.4941V135.833Z" fill="white"/>
<path d="M74.4941 142.617H54.6113V145.658H74.4941V142.617Z" fill="white"/>
<path d="M66.7748 170.92H54.6113V173.961H66.7748V170.92Z" fill="white"/>
<path d="M66.7748 177.704H54.6113V180.745H66.7748V177.704Z" fill="white"/>
<path d="M87.6713 177.704H75.5078V180.745H87.6713V177.704Z" fill="white"/>
<path d="M62.2526 163.201H54.6113V166.242H62.2526V163.201Z" fill="white"/>
<path d="M91.4136 163.201H87.3594V166.242H91.4136V163.201Z" fill="white"/>
<path d="M85.8011 163.201H64.9043V166.242H85.8011V163.201Z" fill="#FF4D6B"/>
<path d="M57.5354 151.74H54.6113V154.781H57.5354V151.74Z" fill="#2889DB"/>
<path d="M57.5354 157.119H54.6113V160.16H57.5354V157.119Z" fill="#FF4D6B"/>
<path d="M70.8303 181.369H69.7383L72.3504 177.47H73.4423L70.8303 181.369Z" fill="white"/>
<path d="M99.7571 186.592H54.6113V189.165H99.7571V186.592Z" fill="#282E5C"/>
<path d="M99.7571 192.44H54.6113V195.014H99.7571V192.44Z" fill="#282E5C"/>
<path d="M316.907 155.014H192.776C189.675 155.014 187.162 152.5 187.162 149.4V115.716C187.162 112.615 189.675 110.102 192.776 110.102H316.907C320.008 110.102 322.521 112.615 322.521 115.716V149.4C322.521 152.5 320.007 155.014 316.907 155.014Z" fill="#A9A2FF"/>
<path d="M227.396 139.108C227.396 139.108 234.258 122.266 253.907 126.32C273.555 130.375 283.536 152.518 308.799 134.43" stroke="white" stroke-width="1.1276" stroke-miterlimit="10"/>
<path d="M291.02 140.043H288.213V142.85H291.02V140.043Z" fill="#A9A2FF" stroke="white" stroke-width="1.1276" stroke-miterlimit="10"/>
<path d="M230.826 125.541H266.381" stroke="white" stroke-width="0.5638" stroke-miterlimit="10"/>
<path d="M271.84 142.227H307.395" stroke="white" stroke-width="0.5638" stroke-miterlimit="10"/>
<path d="M248.604 124.137H245.797V126.944H248.604V124.137Z" fill="#A9A2FF" stroke="white" stroke-width="1.1276" stroke-miterlimit="10"/>
<path d="M210.867 166.554H184.044C181.805 166.554 179.99 164.738 179.99 162.5V122.266C179.99 120.027 181.806 118.212 184.044 118.212H210.867C213.106 118.212 214.921 120.027 214.921 122.266V162.5C214.921 164.738 213.106 166.554 210.867 166.554Z" fill="#284D89"/>
<path d="M205.33 125.073H185.447V127.815H205.33V125.073Z" fill="white"/>
<path d="M205.33 131.188H185.447V133.93H205.33V131.188Z" fill="white"/>
<path d="M192.933 137.303H185.447V140.045H192.933V137.303Z" fill="white"/>
<path d="M198.391 143.629H185.447V146.371H198.391V143.629Z" fill="#A9A2FF"/>
<path d="M194.18 149.745H185.447V152.486H194.18V149.745Z" fill="#A9A2FF"/>
<path d="M194.18 155.859H185.447V158.601H194.18V155.859Z" fill="white"/>
<path d="M300.689 104.021H314.725" stroke="#284D89" stroke-width="2.2552" stroke-miterlimit="10" stroke-linecap="round" stroke-linejoin="round"/>
<path d="M269.155 183.212L264.311 187.004L257.361 188.267C257.361 188.267 250.832 187.846 250.2 187.846C249.568 187.846 245.146 184.265 245.146 184.265L236.932 181.317L231.245 183.423L224.506 181.949L214.397 181.316L204.71 185.108L196.707 186.371L189.546 188.688L181.543 189.32L172.908 182.581L164.905 181.106L156.691 185.74L150.163 187.846L142.75 187.635L133.409 193.321H127.839L118.432 196.621" stroke="#4A3AFF" stroke-width="1.0152" stroke-miterlimit="10"/>
<path d="M118.572 196.762H269.364" stroke="#F7F7F7" stroke-width="0.2538" stroke-miterlimit="10"/>
<path d="M118.644 194.866H117.1V198.657H118.644V194.866Z" fill="#F7F7F7"/>
<path d="M269.997 194.866H268.453V198.657H269.997V194.866Z" fill="#F7F7F7"/>
<path d="M269.225 196.762V184.055" stroke="#F7F7F7" stroke-width="0.2538" stroke-miterlimit="10"/>
<path d="M270.068 183.423C270.068 184.082 269.534 184.616 268.875 184.616C268.216 184.616 267.682 184.082 267.682 183.423C267.682 182.764 268.216 182.23 268.875 182.23C269.534 182.23 270.068 182.764 270.068 183.423Z" fill="#F7F7F7"/>
<path d="M119.498 206.915V201.008H120.179V203.189H120.237C120.287 203.112 120.356 203.014 120.445 202.894C120.535 202.773 120.664 202.666 120.831 202.571C121 202.475 121.229 202.427 121.517 202.427C121.89 202.427 122.219 202.52 122.504 202.707C122.788 202.893 123.011 203.158 123.17 203.5C123.33 203.842 123.41 204.246 123.41 204.711C123.41 205.181 123.33 205.587 123.17 205.932C123.011 206.274 122.789 206.539 122.507 206.728C122.224 206.914 121.898 207.007 121.529 207.007C121.244 207.007 121.017 206.96 120.845 206.866C120.674 206.77 120.543 206.661 120.45 206.54C120.358 206.417 120.287 206.315 120.237 206.234H120.156V206.915H119.498ZM120.168 204.7C120.168 205.035 120.217 205.33 120.315 205.585C120.413 205.839 120.556 206.038 120.744 206.182C120.933 206.325 121.164 206.396 121.437 206.396C121.721 206.396 121.959 206.321 122.149 206.171C122.341 206.019 122.486 205.815 122.582 205.559C122.68 205.302 122.729 205.015 122.729 204.7C122.729 204.388 122.681 204.108 122.585 203.858C122.49 203.606 122.347 203.407 122.155 203.261C121.965 203.113 121.725 203.039 121.437 203.039C121.16 203.039 120.927 203.109 120.739 203.249C120.55 203.388 120.408 203.582 120.312 203.832C120.216 204.08 120.168 204.369 120.168 204.7ZM126.308 207.007C125.881 207.007 125.513 206.913 125.204 206.725C124.896 206.534 124.658 206.269 124.491 205.929C124.326 205.586 124.243 205.188 124.243 204.735C124.243 204.281 124.326 203.881 124.491 203.535C124.658 203.187 124.891 202.916 125.189 202.721C125.489 202.525 125.839 202.427 126.239 202.427C126.47 202.427 126.698 202.466 126.923 202.543C127.147 202.619 127.352 202.744 127.537 202.917C127.721 203.089 127.869 203.316 127.978 203.598C128.088 203.881 128.143 204.229 128.143 204.642V204.931H124.728V204.342H127.45C127.45 204.092 127.4 203.869 127.3 203.673C127.202 203.477 127.062 203.322 126.879 203.209C126.698 203.095 126.485 203.039 126.239 203.039C125.968 203.039 125.733 203.106 125.535 203.241C125.339 203.373 125.188 203.546 125.082 203.76C124.977 203.973 124.924 204.202 124.924 204.446V204.838C124.924 205.173 124.981 205.457 125.097 205.689C125.214 205.92 125.377 206.096 125.584 206.217C125.792 206.336 126.033 206.396 126.308 206.396C126.487 206.396 126.649 206.371 126.793 206.321C126.939 206.269 127.065 206.192 127.171 206.09C127.276 205.986 127.358 205.857 127.416 205.704L128.073 205.888C128.004 206.111 127.888 206.307 127.724 206.477C127.561 206.644 127.359 206.775 127.119 206.869C126.878 206.961 126.608 207.007 126.308 207.007ZM131.105 202.485V203.062H128.809V202.485H131.105ZM129.478 201.423H130.159V205.646C130.159 205.838 130.186 205.982 130.242 206.079C130.3 206.173 130.373 206.236 130.461 206.269C130.552 206.3 130.647 206.315 130.747 206.315C130.822 206.315 130.884 206.311 130.932 206.304C130.98 206.294 131.018 206.286 131.047 206.281L131.185 206.892C131.139 206.909 131.075 206.927 130.992 206.944C130.909 206.963 130.805 206.973 130.678 206.973C130.485 206.973 130.297 206.931 130.112 206.849C129.93 206.766 129.778 206.64 129.657 206.471C129.538 206.302 129.478 206.088 129.478 205.831V201.423ZM133.432 207.019C133.151 207.019 132.897 206.966 132.668 206.86C132.439 206.753 132.257 206.598 132.123 206.396C131.988 206.192 131.921 205.946 131.921 205.658C131.921 205.404 131.971 205.198 132.071 205.04C132.171 204.881 132.304 204.756 132.472 204.665C132.639 204.575 132.824 204.508 133.026 204.463C133.229 204.417 133.434 204.381 133.64 204.354C133.909 204.319 134.127 204.293 134.295 204.276C134.464 204.257 134.587 204.225 134.664 204.181C134.743 204.137 134.782 204.06 134.782 203.95V203.927C134.782 203.642 134.704 203.421 134.548 203.264C134.395 203.106 134.161 203.027 133.848 203.027C133.523 203.027 133.268 203.098 133.083 203.241C132.899 203.383 132.769 203.535 132.694 203.696L132.048 203.465C132.163 203.196 132.317 202.987 132.509 202.837C132.703 202.685 132.915 202.579 133.144 202.519C133.375 202.458 133.601 202.427 133.824 202.427C133.967 202.427 134.13 202.444 134.315 202.479C134.501 202.512 134.681 202.58 134.854 202.684C135.029 202.788 135.174 202.944 135.29 203.154C135.405 203.364 135.463 203.644 135.463 203.996V206.915H134.782V206.315H134.747C134.701 206.411 134.624 206.514 134.517 206.624C134.409 206.733 134.266 206.827 134.087 206.904C133.908 206.98 133.69 207.019 133.432 207.019ZM133.536 206.407C133.805 206.407 134.032 206.355 134.217 206.249C134.403 206.143 134.544 206.007 134.638 205.839C134.734 205.672 134.782 205.496 134.782 205.311V204.688C134.753 204.723 134.69 204.755 134.592 204.784C134.496 204.811 134.384 204.835 134.257 204.856C134.132 204.875 134.01 204.892 133.891 204.908C133.774 204.921 133.678 204.933 133.605 204.942C133.428 204.965 133.263 205.003 133.109 205.055C132.957 205.105 132.834 205.181 132.74 205.283C132.648 205.383 132.602 205.519 132.602 205.692C132.602 205.929 132.689 206.107 132.864 206.229C133.041 206.348 133.265 206.407 133.536 206.407ZM121.333 212.485V213.062H119.037V212.485H121.333ZM119.706 211.423H120.387V215.646C120.387 215.838 120.415 215.982 120.47 216.079C120.528 216.173 120.601 216.236 120.69 216.269C120.78 216.3 120.875 216.315 120.975 216.315C121.05 216.315 121.112 216.311 121.16 216.304C121.208 216.294 121.246 216.286 121.275 216.281L121.414 216.892C121.367 216.909 121.303 216.927 121.22 216.944C121.138 216.963 121.033 216.973 120.906 216.973C120.714 216.973 120.525 216.931 120.341 216.849C120.158 216.766 120.006 216.64 119.885 216.471C119.766 216.302 119.706 216.088 119.706 215.831V211.423ZM124.167 217.007C123.74 217.007 123.372 216.913 123.062 216.725C122.754 216.534 122.517 216.269 122.35 215.929C122.184 215.586 122.102 215.188 122.102 214.735C122.102 214.281 122.184 213.881 122.35 213.535C122.517 213.187 122.75 212.916 123.048 212.721C123.348 212.525 123.697 212.427 124.097 212.427C124.328 212.427 124.556 212.466 124.781 212.543C125.006 212.619 125.211 212.744 125.395 212.917C125.58 213.089 125.727 213.316 125.837 213.598C125.946 213.881 126.001 214.229 126.001 214.642V214.931H122.586V214.342H125.309C125.309 214.092 125.259 213.869 125.159 213.673C125.061 213.477 124.92 213.322 124.738 213.209C124.557 213.095 124.344 213.039 124.097 213.039C123.826 213.039 123.592 213.106 123.394 213.241C123.198 213.373 123.047 213.546 122.941 213.76C122.835 213.973 122.782 214.202 122.782 214.446V214.838C122.782 215.173 122.84 215.457 122.955 215.689C123.073 215.92 123.235 216.096 123.443 216.217C123.65 216.336 123.892 216.396 124.167 216.396C124.345 216.396 124.507 216.371 124.651 216.321C124.797 216.269 124.923 216.192 125.029 216.09C125.135 215.986 125.216 215.857 125.274 215.704L125.932 215.888C125.863 216.111 125.746 216.307 125.583 216.477C125.419 216.644 125.217 216.775 124.977 216.869C124.737 216.961 124.467 217.007 124.167 217.007ZM130.174 213.477L129.563 213.65C129.525 213.548 129.468 213.449 129.393 213.353C129.32 213.255 129.22 213.174 129.093 213.111C128.966 213.047 128.804 213.016 128.605 213.016C128.334 213.016 128.108 213.078 127.928 213.203C127.749 213.326 127.659 213.483 127.659 213.673C127.659 213.842 127.721 213.976 127.844 214.074C127.967 214.172 128.159 214.254 128.421 214.319L129.078 214.481C129.475 214.577 129.77 214.724 129.964 214.922C130.158 215.118 130.255 215.371 130.255 215.681C130.255 215.934 130.182 216.161 130.036 216.361C129.892 216.561 129.69 216.719 129.43 216.834C129.171 216.95 128.869 217.007 128.525 217.007C128.073 217.007 127.699 216.909 127.403 216.713C127.107 216.517 126.919 216.231 126.84 215.854L127.486 215.692C127.548 215.931 127.664 216.109 127.835 216.229C128.008 216.348 128.234 216.407 128.513 216.407C128.83 216.407 129.082 216.34 129.269 216.206C129.457 216.069 129.551 215.906 129.551 215.715C129.551 215.561 129.498 215.433 129.39 215.329C129.282 215.223 129.117 215.144 128.894 215.092L128.156 214.919C127.75 214.823 127.452 214.674 127.261 214.472C127.073 214.268 126.979 214.014 126.979 213.708C126.979 213.458 127.049 213.237 127.189 213.044C127.332 212.852 127.525 212.701 127.769 212.592C128.015 212.482 128.294 212.427 128.605 212.427C129.044 212.427 129.388 212.523 129.638 212.716C129.89 212.908 130.069 213.162 130.174 213.477ZM133.207 212.485V213.062H130.911V212.485H133.207ZM131.58 211.423H132.261V215.646C132.261 215.838 132.288 215.982 132.344 216.079C132.402 216.173 132.475 216.236 132.563 216.269C132.654 216.3 132.749 216.315 132.849 216.315C132.924 216.315 132.985 216.311 133.033 216.304C133.082 216.294 133.12 216.286 133.149 216.281L133.287 216.892C133.241 216.909 133.177 216.927 133.094 216.944C133.011 216.963 132.907 216.973 132.78 216.973C132.587 216.973 132.399 216.931 132.214 216.849C132.032 216.766 131.88 216.64 131.759 216.471C131.639 216.302 131.58 216.088 131.58 215.831V211.423Z" fill="#F7F7F7"/>
<path d="M247.182 202.237H153.393V203.922H247.182V202.237Z" fill="#28385E"/>
<path d="M210.957 202.237H153.393V203.922H210.957V202.237Z" fill="#4A3AFF"/>
<path d="M199.515 205.466H153.393V207.15H199.515V205.466Z" fill="#28385E"/>
<path d="M124.154 210.486H129.84L130.578 208.906H119.1V211.539H123.101L124.154 210.486Z" fill="#4A3AFF"/>
<path d="M135.939 208.889H135.307V209.52H135.939V208.889Z" fill="#F7F7F7"/>
<path d="M139.86 208.889H139.229V209.52H139.86V208.889Z" fill="#F7F7F7"/>
<path d="M143.785 208.889H143.152V209.52H143.785V208.889Z" fill="#F7F7F7"/>
<path d="M264.309 180.553C263.971 180.553 263.666 180.486 263.395 180.352C263.124 180.217 262.906 180.032 262.743 179.798C262.579 179.563 262.49 179.296 262.475 178.996H263.167C263.194 179.263 263.315 179.484 263.53 179.659C263.747 179.832 264.007 179.919 264.309 179.919C264.551 179.919 264.767 179.862 264.955 179.749C265.145 179.635 265.294 179.48 265.402 179.281C265.512 179.081 265.566 178.856 265.566 178.604C265.566 178.346 265.51 178.116 265.396 177.914C265.285 177.711 265.131 177.55 264.935 177.433C264.739 177.315 264.515 177.256 264.263 177.254C264.082 177.252 263.896 177.28 263.706 177.337C263.516 177.393 263.359 177.465 263.236 177.554L262.567 177.473L262.924 174.566H265.993V175.2H263.524L263.317 176.942H263.351C263.473 176.846 263.624 176.766 263.807 176.703C263.99 176.64 264.18 176.608 264.378 176.608C264.74 176.608 265.062 176.694 265.344 176.867C265.629 177.038 265.852 177.273 266.014 177.571C266.177 177.869 266.259 178.209 266.259 178.592C266.259 178.969 266.174 179.306 266.005 179.602C265.838 179.896 265.607 180.128 265.313 180.3C265.018 180.469 264.684 180.553 264.309 180.553ZM269.331 180.553C268.897 180.553 268.526 180.435 268.221 180.199C267.915 179.96 267.681 179.615 267.52 179.163C267.358 178.709 267.278 178.161 267.278 177.519C267.278 176.881 267.358 176.336 267.52 175.884C267.683 175.43 267.918 175.084 268.224 174.846C268.531 174.605 268.9 174.485 269.331 174.485C269.762 174.485 270.13 174.605 270.436 174.846C270.743 175.084 270.978 175.43 271.14 175.884C271.303 176.336 271.385 176.881 271.385 177.519C271.385 178.161 271.304 178.709 271.142 179.163C270.981 179.615 270.747 179.96 270.442 180.199C270.136 180.435 269.766 180.553 269.331 180.553ZM269.331 179.919C269.762 179.919 270.096 179.711 270.335 179.296C270.573 178.881 270.692 178.288 270.692 177.519C270.692 177.008 270.638 176.572 270.528 176.213C270.42 175.853 270.265 175.579 270.061 175.391C269.859 175.202 269.616 175.108 269.331 175.108C268.904 175.108 268.571 175.319 268.33 175.74C268.09 176.159 267.97 176.752 267.97 177.519C267.97 178.031 268.024 178.465 268.131 178.823C268.239 179.181 268.394 179.453 268.596 179.639C268.799 179.826 269.045 179.919 269.331 179.919ZM264.39 190.553C263.955 190.553 263.585 190.435 263.279 190.199C262.974 189.96 262.74 189.615 262.578 189.163C262.417 188.709 262.336 188.161 262.336 187.519C262.336 186.881 262.417 186.336 262.578 185.884C262.742 185.43 262.976 185.084 263.282 184.846C263.59 184.605 263.959 184.485 264.39 184.485C264.82 184.485 265.189 184.605 265.494 184.846C265.802 185.084 266.037 185.43 266.198 185.884C266.362 186.336 266.443 186.881 266.443 187.519C266.443 188.161 266.363 188.709 266.201 189.163C266.039 189.615 265.806 189.96 265.5 190.199C265.194 190.435 264.824 190.553 264.39 190.553ZM264.39 189.919C264.82 189.919 265.155 189.711 265.393 189.296C265.632 188.881 265.751 188.288 265.751 187.519C265.751 187.008 265.696 186.572 265.587 186.213C265.479 185.853 265.323 185.579 265.119 185.391C264.918 185.202 264.674 185.108 264.39 185.108C263.963 185.108 263.629 185.319 263.389 185.74C263.149 186.159 263.028 186.752 263.028 187.519C263.028 188.031 263.082 188.465 263.19 188.823C263.298 189.181 263.452 189.453 263.654 189.639C263.858 189.826 264.103 189.919 264.39 189.919Z" fill="#F7F7F7"/>
<path d="M253.922 207.291H252.518L250.271 202.237H251.675L253.922 207.291Z" fill="#28385E"/>
<path d="M257.572 207.291H256.168L253.922 202.237H255.326L257.572 207.291Z" fill="#28385E"/>
<path d="M261.222 207.291H259.818L257.572 202.237H258.976L261.222 207.291Z" fill="#28385E"/>
<path d="M264.874 207.291H263.47L261.223 202.237H262.627L264.874 207.291Z" fill="#28385E"/>
<path d="M268.454 207.291H267.049L264.803 202.237H266.207L268.454 207.291Z" fill="#28385E"/>
<path d="M262.357 33.269H239.527V37.3581H262.357V33.269Z" fill="#A9CCEA"/>
<path d="M273.949 40.5859H239.527V44.6742H273.949V40.5859Z" fill="#A9CCEA"/>
<path d="M281.976 47.9028H239.527V51.9919H281.976V47.9028Z" fill="#A9CCEA"/>
<path d="M255.758 55.2197H239.527V59.3088H255.758V55.2197Z" fill="#A9CCEA"/>
<path d="M22.8293 82.5474H0V86.6364H22.8293V82.5474Z" fill="#2889DB"/>
<path d="M34.4219 89.8643H0V93.9525H34.4219V89.8643Z" fill="#A9CCEA"/>
<path d="M42.4482 97.1802H0V101.269H42.4482V97.1802Z" fill="#A9CCEA"/>
<path d="M16.2302 104.498H0V108.587H16.2302V104.498Z" fill="#A9CCEA"/>
<path d="M154.259 226.124H56.9512V238.755H154.259V226.124Z" stroke="#A9A2FF" stroke-width="1.1276" stroke-miterlimit="10"/>
<path d="M108.567 126.633H103.889V155.326H108.567V126.633Z" stroke="#A9A2FF" stroke-width="1.1276" stroke-miterlimit="10"/>
<path d="M296.47 207.345C305.261 205.927 311.238 197.651 309.82 188.86C308.402 180.068 300.127 174.091 291.336 175.508C282.544 176.926 276.567 185.202 277.985 193.994C279.403 202.785 287.679 208.763 296.47 207.345Z" fill="#4A3AFF"/>
<path d="M292.754 189.919L286.35 192.266L292.754 194.593V196.998L283.6 193.516V191.016L292.754 187.535V189.919Z" fill="#F9FBFC"/>
<path d="M294.846 187.534L304 191.015V193.515L294.846 196.997V194.592L301.25 192.265L294.846 189.918V187.534Z" fill="#F9FBFC"/>
<path d="M320.806 204.604C320.806 205.766 319.863 206.709 318.701 206.709C317.538 206.709 316.596 205.766 316.596 204.604C316.596 203.441 317.538 202.499 318.701 202.499C319.863 202.499 320.806 203.441 320.806 204.604Z" stroke="#FF4D6B" stroke-width="1.1276" stroke-miterlimit="10"/>
<path d="M128.061 52.0918H51.8047V60.0451H128.061V52.0918Z" stroke="#A9A2FF" stroke-width="1.1276" stroke-miterlimit="10"/>
<path d="M102.329 54.6646H55.0781V57.0037H102.329V54.6646Z" fill="#A9A2FF"/>
<path d="M172.503 114.157H116.676V116.964H172.503V114.157Z" fill="#284D89"/>
<path d="M141.978 114.157H116.676V116.964H141.978V114.157Z" fill="#2889DB"/>
<path d="M172.503 121.408H116.676V124.215H172.503V121.408Z" fill="#284D89"/>
<path d="M155.544 121.408H116.676V124.215H155.544V121.408Z" fill="#4A3AFF"/>
<path d="M172.503 128.66H116.676V131.467H172.503V128.66Z" fill="#284D89"/>
<path d="M128.059 128.66H116.676V131.467H128.059V128.66Z" fill="#1AE5FF"/>
<path d="M118.002 109.245H116.91V110.337H118.002V109.245Z" fill="#284D89"/>
<path d="M121.746 109.245H120.654V110.337H121.746V109.245Z" fill="#284D89"/>
<path d="M125.488 109.245H124.396V110.337H125.488V109.245Z" fill="#284D89"/>
<path d="M222.612 147.477H220.793V149.297H222.612V147.477Z" fill="white"/>
<path d="M228.851 147.477H227.031V149.297H228.851V147.477Z" fill="white"/>
<path d="M235.089 147.477H233.27V149.297H235.089V147.477Z" fill="white"/>
<path d="M250.466 75.1812H247.055V78.5923H250.466V75.1812Z" fill="white"/>
<path d="M262.161 75.1812H258.75V78.5923H262.161V75.1812Z" fill="white"/>
<path d="M273.856 75.1812H270.445V78.5923H273.856V75.1812Z" fill="white"/>
<path d="M202.124 216.153H198.713V219.564H202.124V216.153Z" fill="white"/>
<path d="M213.819 216.153H210.408V219.564H213.819V216.153Z" fill="white"/>
<path d="M225.515 216.153H222.104V219.564H225.515V216.153Z" fill="white"/>
<path d="M57.4185 121.694H55.5996V123.514H57.4185V121.694Z" fill="white"/>
<path d="M63.6556 121.694H61.8359V123.514H63.6556V121.694Z" fill="white"/>
<path d="M69.8939 121.694H68.0742V123.514H69.8939V121.694Z" fill="white"/>
<path d="M310.671 119.459H280.418V122.423H310.671V119.459Z" fill="white"/>
<path d="M289.396 124.684H280.418V127.647H289.396V124.684Z" fill="#287DD1"/>
<path d="M36.3664 125.541H29.817V118.991H23.7349V125.541H17.1855V131.623H23.7349V138.172H29.817V131.623H36.3664V125.541Z" fill="#1AE5FF"/>
<path d="M18.8389 143.786H14.8453V139.792H11.1371V143.786H7.14258V147.494H11.1371V151.488H14.8453V147.494H18.8389V143.786Z" fill="#2889DB"/>
<path d="M128.149 140.299C122.492 140.299 117.906 144.885 117.906 150.541C117.906 156.199 122.492 160.784 128.149 160.784C133.806 160.784 138.391 156.198 138.391 150.541C138.391 144.885 133.805 140.299 128.149 140.299ZM128.149 155.879C125.201 155.879 122.812 153.49 122.812 150.541C122.812 147.593 125.202 145.204 128.149 145.204C131.097 145.204 133.487 147.593 133.487 150.541C133.487 153.49 131.096 155.879 128.149 155.879Z" fill="#284D89"/>
<path d="M121.177 149.532C122.128 149.532 122.962 148.966 123.395 148.118C124.278 146.388 126.075 145.204 128.149 145.204C130.224 145.204 132.021 146.388 132.904 148.118C133.336 148.966 134.171 149.532 135.123 149.532C136.915 149.532 138.141 147.654 137.353 146.043C135.688 142.641 132.193 140.299 128.15 140.299C124.107 140.299 120.612 142.641 118.947 146.044C118.158 147.654 119.384 149.532 121.177 149.532Z" fill="#A9A2FF"/>
<path d="M145.352 150.541C145.352 156.198 149.938 160.784 155.594 160.784C161.251 160.784 165.837 156.198 165.837 150.541C165.837 144.884 161.251 140.299 155.594 140.299C149.938 140.299 145.352 144.885 145.352 150.541ZM160.932 150.541C160.932 153.489 158.542 155.878 155.594 155.878C152.646 155.878 150.256 153.489 150.256 150.541C150.256 147.593 152.646 145.204 155.594 145.204C158.542 145.204 160.932 147.593 160.932 150.541Z" fill="#284D89"/>
<path d="M154.585 157.514C154.585 156.562 154.019 155.728 153.171 155.295C151.442 154.413 150.257 152.616 150.257 150.541C150.257 148.466 151.442 146.67 153.171 145.787C154.019 145.355 154.585 144.52 154.585 143.568C154.585 141.776 152.707 140.549 151.097 141.338C147.695 143.003 145.352 146.498 145.352 150.541C145.352 154.584 147.695 158.079 151.097 159.744C152.707 160.533 154.585 159.307 154.585 157.514Z" fill="#4A3AFF"/>
<path d="M98.8984 110.103H80.1855V155.015H98.8984V110.103Z" stroke="#A9A2FF" stroke-width="1.1276" stroke-miterlimit="10"/>
<path d="M88.2941 118.757H82.8359V120.37H88.2941V118.757Z" fill="#1AE5FF"/>
<path d="M88.2941 122.356H82.8359V123.969H88.2941V122.356Z" fill="#1AE5FF"/>
<path d="M88.2941 125.955H82.8359V127.568H88.2941V125.955Z" fill="#1AE5FF"/>
<path d="M88.2941 144.668H82.8359V146.282H88.2941V144.668Z" fill="#1AE5FF"/>
<path d="M90.7892 131.233H82.8359V132.846H90.7892V131.233Z" fill="#1AE5FF"/>
<path d="M90.7892 134.832H82.8359V136.445H90.7892V134.832Z" fill="white"/>
<path d="M90.7892 138.43H82.8359V140.043H90.7892V138.43Z" fill="white"/>
<path d="M36.8339 166.242H13.1309V189.945H36.8339V166.242Z" fill="#A9A2FF"/>
<path d="M24.3593 171.855H0.65625V195.558H24.3593V171.855Z" stroke="#A9A2FF" stroke-width="1.1276" stroke-miterlimit="10"/>
<path d="M305.057 234.857H295.076V244.837H305.057V234.857Z" stroke="#A9A2FF" stroke-width="1.1276" stroke-miterlimit="10"/>
<path d="M175.311 219.106H183.732L188.41 223.785H237.064L244.549 216.299H270.748" stroke="white" stroke-width="1.1276" stroke-miterlimit="10"/>
<path d="M172.855 221.679C174.211 221.679 175.311 220.58 175.311 219.223C175.311 217.867 174.211 216.767 172.855 216.767C171.498 216.767 170.398 217.867 170.398 219.223C170.398 220.58 171.498 221.679 172.855 221.679Z" stroke="white" stroke-width="1.1276" stroke-miterlimit="10"/>
<path d="M273.282 218.638C274.639 218.638 275.738 217.539 275.738 216.182C275.738 214.826 274.639 213.726 273.282 213.726C271.926 213.726 270.826 214.826 270.826 216.182C270.826 217.539 271.926 218.638 273.282 218.638Z" stroke="white" stroke-width="1.1276" stroke-miterlimit="10"/>
<path d="M306.303 87.0229C306.303 88.7455 304.906 90.142 303.184 90.142C301.461 90.142 300.064 88.7455 300.064 87.0229C300.064 85.3003 301.461 83.9038 303.184 83.9038C304.906 83.9038 306.303 85.3003 306.303 87.0229Z" fill="#A9A2FF"/>
<path d="M18.121 208.659C18.121 210.381 16.7245 211.778 15.0019 211.778C13.2793 211.778 11.8828 210.381 11.8828 208.659C11.8828 206.936 13.2793 205.54 15.0019 205.54C16.7253 205.54 18.121 206.936 18.121 208.659Z" fill="#4A3AFF"/>
<path d="M32.4671 220.198C32.4671 223.213 30.0235 225.657 27.009 225.657C23.9944 225.657 21.5508 223.213 21.5508 220.198C21.5508 217.184 23.9944 214.74 27.009 214.74C30.0235 214.74 32.4671 217.184 32.4671 220.198Z" fill="#4A3AFF"/>
<path d="M218.351 238.599H196.52V243.589H218.351V238.599Z" stroke="#A9A2FF" stroke-width="1.1276" stroke-miterlimit="10"/>
<path d="M244.394 247.956H196.52V252.946H244.394V247.956Z" stroke="#A9A2FF" stroke-width="1.1276" stroke-miterlimit="10"/>
<path d="M62.7738 243.379L57.4824 248.67" stroke="#A9A2FF" stroke-width="1.1276" stroke-miterlimit="10" stroke-linecap="round" stroke-linejoin="round"/>
<path d="M67.8617 243.379L62.5703 248.67" stroke="#A9A2FF" stroke-width="1.1276" stroke-miterlimit="10" stroke-linecap="round" stroke-linejoin="round"/>
<path d="M72.9496 243.379L67.6582 248.67" stroke="#A9A2FF" stroke-width="1.1276" stroke-miterlimit="10" stroke-linecap="round" stroke-linejoin="round"/>
<path d="M78.0375 243.379L72.7461 248.67" stroke="#A9A2FF" stroke-width="1.1276" stroke-miterlimit="10" stroke-linecap="round" stroke-linejoin="round"/>
<path d="M83.1254 243.379L77.834 248.67" stroke="#A9A2FF" stroke-width="1.1276" stroke-miterlimit="10" stroke-linecap="round" stroke-linejoin="round"/>
</svg>
