<svg width="365" height="272" viewBox="0 0 365 272" fill="none" xmlns="http://www.w3.org/2000/svg">
<path d="M351.427 233.029C350.424 233.029 349.423 232.77 348.529 232.254L338.76 226.613C338.193 226.286 337.854 225.7 337.854 225.046C337.854 224.392 338.193 223.806 338.76 223.479L348.529 217.839C350.315 216.807 352.537 216.807 354.324 217.839L364.094 223.479C364.661 223.806 365 224.392 365 225.046C365 225.7 364.661 226.286 364.094 226.613L354.325 232.254C353.431 232.77 352.429 233.029 351.427 233.029ZM351.427 218.614C350.692 218.614 349.957 218.803 349.302 219.181L339.533 224.821C339.42 224.887 339.403 224.991 339.403 225.046C339.403 225.102 339.421 225.206 339.533 225.272L349.303 230.913H349.304C350.613 231.668 352.24 231.668 353.551 230.913L363.32 225.272C363.433 225.206 363.45 225.102 363.45 225.046C363.45 224.991 363.433 224.887 363.32 224.821L353.55 219.181C352.894 218.802 352.16 218.614 351.427 218.614Z" fill="#5AA7FF"/>
<path d="M323.484 201.021C321.856 201.021 320.229 200.603 318.777 199.764L301.964 190.056C301.163 189.594 300.685 188.768 300.685 187.844C300.685 186.92 301.163 186.092 301.964 185.631L318.776 175.924C321.678 174.247 325.287 174.246 328.192 175.924L345.005 185.631C345.805 186.093 346.283 186.92 346.283 187.843C346.283 188.767 345.806 189.594 345.006 190.057L328.192 199.764C326.741 200.602 325.112 201.021 323.484 201.021ZM319.551 198.423C321.978 199.823 324.991 199.823 327.418 198.423L344.231 188.716C344.685 188.454 344.733 188.018 344.733 187.844C344.733 187.669 344.684 187.235 344.231 186.972L327.417 177.265C324.99 175.865 321.978 175.865 319.55 177.265L302.738 186.972C302.284 187.234 302.235 187.669 302.235 187.844C302.235 188.018 302.284 188.453 302.738 188.715L319.551 198.423Z" fill="#5AA7FF"/>
<path d="M22.7997 216.298C21.1715 216.298 19.5441 215.879 18.0924 215.04L1.27775 205.333C0.476974 204.871 0 204.043 0 203.119C0 202.196 0.477806 201.369 1.27775 200.907L18.0908 191.201C20.9934 189.523 24.6027 189.523 27.5061 191.201L44.3192 200.908C45.1199 201.37 45.5977 202.197 45.5977 203.121C45.5977 204.045 45.1199 204.872 44.3192 205.333L27.507 215.04C26.0561 215.878 24.4271 216.298 22.7997 216.298ZM22.7989 191.492C21.4387 191.492 20.0786 191.843 18.8649 192.543L2.05189 202.249C1.59823 202.512 1.54911 202.946 1.54911 203.121C1.54911 203.296 1.59823 203.73 2.05273 203.993L18.8657 213.7C21.293 215.1 24.3055 215.1 26.7328 213.7L43.545 203.993C43.9995 203.731 44.0478 203.296 44.0478 203.122C44.0478 202.947 43.9987 202.513 43.545 202.25L26.732 192.543C25.5184 191.842 24.1582 191.492 22.7989 191.492Z" fill="#5AA7FF"/>
<path opacity="0.6" d="M193.065 258.646L72.8399 189.234C71.0877 188.222 71.3075 186.455 73.3311 185.287L150.493 140.737C152.517 139.569 155.577 139.442 157.33 140.454L277.554 209.867C279.307 210.879 279.087 212.646 277.063 213.814L199.901 258.363C197.879 259.532 194.817 259.658 193.065 258.646Z" fill="#121220"/>
<path d="M195.819 271.178C194.413 271.178 193.066 270.886 192.036 270.291H192.037L54.8241 191.072C53.7029 190.426 53.0861 189.493 53.0861 188.445C53.0861 187.243 53.9235 186.069 55.3835 185.226L148.916 130.426C151.482 128.945 155.25 128.802 157.499 130.1L294.71 209.321C295.832 209.967 296.449 210.9 296.449 211.947C296.449 213.15 295.611 214.323 294.15 215.166L200.618 269.965C199.227 270.768 197.483 271.178 195.819 271.178ZM153.734 130.769C152.328 130.769 150.835 131.107 149.696 131.764L56.1635 186.563C55.2054 187.117 54.636 187.819 54.636 188.444C54.636 189.047 55.1596 189.476 55.5983 189.73L192.811 268.949H192.812C194.563 269.962 197.783 269.814 199.838 268.626L293.371 213.826C294.329 213.273 294.899 212.571 294.899 211.946C294.899 211.343 294.375 210.915 293.936 210.661L156.724 131.44C155.942 130.99 154.866 130.769 153.734 130.769Z" fill="#5AA7FF"/>
<path d="M309.493 93.4966L189.742 24.3574C188.919 23.8821 188.06 23.7839 187.298 24.0062L187.297 24.007C187.294 24.0078 187.29 24.0095 187.286 24.0103L185.069 24.7828L185.85 24.9676C185.537 25.338 185.284 25.7975 185.119 26.3369L158.037 114.265C157.366 116.445 158.349 119.095 160.232 120.182L279.984 189.321C280.276 189.489 280.571 189.605 280.865 189.681L280.569 190.327L282.687 189.582L282.682 189.581C283.549 189.235 284.264 188.46 284.609 187.341L311.691 99.4125C312.359 97.2324 311.376 94.5837 309.493 93.4966Z" fill="#696969"/>
<path d="M275.697 192.604L275.739 192.655L157.455 124.364C155.716 123.359 152.676 123.486 150.667 124.646L74.2442 168.768L71.6962 167.795L72.4121 171.37L72.4154 171.369C72.5103 171.906 72.8866 172.41 73.5625 172.8L192.94 241.723C194.68 242.728 197.72 242.601 199.728 241.442L276.346 197.207C277.291 196.661 277.835 195.984 277.97 195.315L277.974 195.32L278.705 191.84L275.697 192.604Z" fill="#686868"/>
<path d="M193.065 238.577L72.8399 169.164C71.0877 168.153 71.3075 166.386 73.3311 165.217L150.493 120.668C152.517 119.5 155.577 119.373 157.33 120.385L277.554 189.797C279.307 190.809 279.087 192.577 277.063 193.745L199.901 238.293C197.879 239.461 194.817 239.589 193.065 238.577Z" fill="url(#paint0_linear_4_356)"/>
<path d="M277.063 192.808L199.901 237.357C197.878 238.526 194.817 238.652 193.065 237.641L72.84 168.229C72.2431 167.884 71.8927 167.449 71.747 166.982C71.5148 167.788 71.8544 168.596 72.84 169.165L193.066 238.577C194.818 239.588 197.879 239.461 199.902 238.294L277.064 193.745C278.399 192.975 278.93 191.947 278.648 191.044C278.467 191.671 277.949 192.297 277.063 192.808Z" fill="white"/>
<g opacity="0.4">
<path d="M130.185 157.9L126.127 155.557C125.8 155.369 125.842 155.04 126.218 154.823L131.009 152.057C131.385 151.84 131.954 151.816 132.281 152.004L136.339 154.348C136.666 154.536 136.624 154.864 136.248 155.082L131.457 157.848C131.081 158.065 130.512 158.088 130.185 157.9Z" fill="#06033E"/>
<path d="M136.454 161.52L132.395 159.176C132.068 158.988 132.11 158.659 132.486 158.442L137.278 155.676C137.654 155.459 138.223 155.436 138.549 155.624L142.608 157.967C142.934 158.155 142.892 158.484 142.516 158.701L137.725 161.467C137.349 161.684 136.78 161.708 136.454 161.52Z" fill="#06033E"/>
<path d="M142.722 165.138L138.664 162.795C138.338 162.607 138.379 162.278 138.755 162.061L143.547 159.295C143.923 159.077 144.492 159.054 144.818 159.242L148.876 161.585C149.202 161.773 149.161 162.102 148.785 162.32L143.994 165.086C143.617 165.303 143.048 165.326 142.722 165.138Z" fill="#06033E"/>
<path d="M151.392 162.15L147.333 159.806C147.007 159.618 147.048 159.289 147.425 159.072L151.446 156.751C151.822 156.533 152.392 156.51 152.717 156.698L156.776 159.041C157.101 159.23 157.061 159.558 156.684 159.776L152.663 162.097C152.287 162.314 151.717 162.338 151.392 162.15Z" fill="#06033E"/>
<path d="M157.66 165.769L153.601 163.426C153.275 163.238 153.316 162.909 153.693 162.692L157.715 160.37C158.091 160.153 158.661 160.129 158.986 160.318L163.045 162.661C163.371 162.849 163.33 163.178 162.953 163.395L158.931 165.717C158.555 165.933 157.985 165.957 157.66 165.769Z" fill="#06033E"/>
<path d="M163.928 169.387L159.869 167.044C159.543 166.856 159.585 166.527 159.961 166.31L163.983 163.988C164.359 163.771 164.929 163.748 165.254 163.936L169.313 166.279C169.639 166.467 169.598 166.796 169.221 167.013L165.199 169.335C164.824 169.552 164.254 169.576 163.928 169.387Z" fill="#06033E"/>
<path d="M170.196 173.007L166.137 170.664C165.811 170.475 165.853 170.147 166.229 169.929L170.25 167.608C170.626 167.391 171.196 167.367 171.521 167.555L175.58 169.899C175.906 170.087 175.865 170.416 175.489 170.633L171.467 172.954C171.092 173.171 170.522 173.195 170.196 173.007Z" fill="#06033E"/>
<path d="M176.465 176.625L172.406 174.282C172.08 174.094 172.121 173.765 172.498 173.548L176.52 171.226C176.896 171.009 177.466 170.986 177.791 171.174L181.85 173.517C182.175 173.705 182.134 174.034 181.758 174.251L177.737 176.573C177.36 176.79 176.79 176.813 176.465 176.625Z" fill="#06033E"/>
<path d="M182.733 180.245L178.674 177.901C178.348 177.713 178.39 177.384 178.766 177.167L182.787 174.846C183.163 174.628 183.733 174.605 184.058 174.793L188.117 177.136C188.443 177.324 188.402 177.653 188.026 177.871L184.004 180.192C183.628 180.409 183.059 180.433 182.733 180.245Z" fill="#06033E"/>
<path d="M189.001 183.864L184.942 181.521C184.616 181.333 184.658 181.004 185.034 180.787L189.055 178.465C189.431 178.248 190.001 178.224 190.326 178.413L194.385 180.756C194.711 180.944 194.67 181.273 194.294 181.49L190.271 183.812C189.897 184.028 189.327 184.052 189.001 183.864Z" fill="#06033E"/>
<path d="M195.269 187.482L191.21 185.139C190.885 184.951 190.926 184.622 191.302 184.405L195.324 182.083C195.7 181.866 196.27 181.843 196.595 182.031L200.654 184.374C200.98 184.562 200.939 184.891 200.562 185.108L196.54 187.43C196.165 187.647 195.595 187.671 195.269 187.482Z" fill="#06033E"/>
<path d="M201.538 191.102L197.479 188.759C197.154 188.57 197.194 188.242 197.571 188.024L201.593 185.703C201.969 185.485 202.539 185.462 202.864 185.65L206.923 187.994C207.249 188.182 207.208 188.51 206.831 188.728L202.81 191.049C202.433 191.267 201.863 191.29 201.538 191.102Z" fill="#06033E"/>
<path d="M207.806 194.72L203.747 192.377C203.421 192.189 203.463 191.86 203.839 191.643L207.86 189.321C208.236 189.104 208.806 189.081 209.131 189.269L213.19 191.612C213.516 191.8 213.475 192.129 213.099 192.346L209.076 194.669C208.701 194.885 208.132 194.908 207.806 194.72Z" fill="#06033E"/>
<path d="M160.628 160.437L156.569 158.094C156.242 157.905 156.284 157.577 156.66 157.359L160.682 155.038C161.058 154.82 161.627 154.797 161.954 154.985L166.012 157.329C166.338 157.517 166.297 157.845 165.921 158.063L161.899 160.384C161.522 160.601 160.953 160.625 160.628 160.437Z" fill="#06033E"/>
<path d="M154.265 156.763L150.207 154.42C149.881 154.232 149.922 153.903 150.298 153.686L154.32 151.363C154.696 151.146 155.265 151.123 155.591 151.311L159.65 153.654C159.977 153.842 159.935 154.171 159.559 154.388L155.537 156.71C155.161 156.928 154.592 156.951 154.265 156.763Z" fill="#06033E"/>
<path d="M147.893 153.084L139.151 148.037C138.826 147.849 138.867 147.52 139.243 147.303L143.264 144.981C143.641 144.764 144.21 144.741 144.535 144.929L153.277 149.976C153.604 150.164 153.562 150.493 153.186 150.71L149.164 153.032C148.789 153.249 148.22 153.272 147.893 153.084Z" fill="#06033E"/>
<path d="M152.348 148.61L145.253 144.514C144.927 144.325 144.968 143.997 145.345 143.779L149.366 141.457C149.742 141.24 150.311 141.216 150.637 141.404L157.732 145.501C158.057 145.689 158.016 146.018 157.64 146.235L153.619 148.557C153.242 148.775 152.673 148.799 152.348 148.61Z" fill="#06033E"/>
<path d="M166.896 164.055L162.837 161.712C162.51 161.524 162.552 161.195 162.928 160.978L166.95 158.655C167.326 158.438 167.895 158.415 168.221 158.603L172.28 160.946C172.605 161.134 172.564 161.463 172.188 161.68L168.167 164.002C167.791 164.22 167.222 164.243 166.896 164.055Z" fill="#06033E"/>
<path d="M173.164 167.674L169.105 165.331C168.779 165.143 168.82 164.814 169.196 164.597L173.218 162.275C173.594 162.057 174.163 162.034 174.489 162.222L178.548 164.565C178.874 164.753 178.832 165.082 178.456 165.3L174.434 167.621C174.059 167.839 173.49 167.863 173.164 167.674Z" fill="#06033E"/>
<path d="M179.433 171.293L175.374 168.95C175.047 168.762 175.089 168.433 175.465 168.216L179.487 165.894C179.864 165.677 180.433 165.653 180.759 165.841L184.817 168.185C185.144 168.373 185.102 168.702 184.726 168.919L180.704 171.24C180.327 171.458 179.758 171.481 179.433 171.293Z" fill="#06033E"/>
<path d="M185.701 174.912L181.642 172.569C181.315 172.381 181.357 172.052 181.733 171.835L185.755 169.513C186.132 169.296 186.701 169.272 187.027 169.461L191.085 171.804C191.411 171.992 191.37 172.321 190.994 172.538L186.972 174.86C186.595 175.077 186.026 175.1 185.701 174.912Z" fill="#06033E"/>
<path d="M191.969 178.531L187.91 176.188C187.584 176 187.625 175.671 188.001 175.454L192.023 173.132C192.399 172.915 192.968 172.892 193.294 173.08L197.353 175.423C197.678 175.611 197.637 175.94 197.261 176.157L193.239 178.479C192.864 178.695 192.295 178.72 191.969 178.531Z" fill="#06033E"/>
<path d="M198.237 182.15L194.178 179.807C193.852 179.619 193.893 179.29 194.269 179.073L198.292 176.751C198.668 176.534 199.237 176.511 199.563 176.699L203.622 179.042C203.948 179.23 203.906 179.559 203.53 179.776L199.508 182.098C199.132 182.315 198.563 182.338 198.237 182.15Z" fill="#06033E"/>
<path d="M204.506 185.769L200.447 183.426C200.12 183.238 200.162 182.909 200.538 182.692L204.56 180.37C204.937 180.153 205.506 180.13 205.832 180.318L209.89 182.661C210.217 182.849 210.175 183.178 209.799 183.395L205.777 185.717C205.4 185.933 204.831 185.957 204.506 185.769Z" fill="#06033E"/>
<path d="M210.774 189.388L206.715 187.044C206.388 186.856 206.43 186.528 206.806 186.31L210.828 183.989C211.205 183.771 211.774 183.748 212.1 183.936L216.158 186.279C216.485 186.468 216.443 186.796 216.067 187.014L212.045 189.335C211.669 189.552 211.1 189.577 210.774 189.388Z" fill="#06033E"/>
<path d="M217.042 193.007L212.983 190.664C212.657 190.476 212.698 190.147 213.074 189.93L217.096 187.608C217.472 187.391 218.041 187.367 218.368 187.556L222.426 189.899C222.752 190.087 222.711 190.416 222.335 190.633L218.314 192.955C217.937 193.172 217.368 193.195 217.042 193.007Z" fill="#06033E"/>
<path d="M228.185 199.441L219.329 194.327C219.004 194.139 219.044 193.81 219.421 193.593L223.443 191.271C223.819 191.053 224.388 191.03 224.714 191.218L233.57 196.332C233.896 196.52 233.855 196.849 233.478 197.066L229.457 199.387C229.081 199.606 228.511 199.629 228.185 199.441Z" fill="#06033E"/>
<path d="M240.389 192.395L232.914 188.079C232.588 187.891 232.629 187.562 233.006 187.345L237.028 185.024C237.404 184.806 237.973 184.783 238.299 184.971L245.774 189.287C246.099 189.475 246.059 189.804 245.682 190.021L241.66 192.343C241.284 192.56 240.715 192.584 240.389 192.395Z" fill="#06033E"/>
<path d="M177.873 163.348L173.814 161.004C173.487 160.816 173.529 160.487 173.905 160.27L177.927 157.949C178.303 157.731 178.872 157.708 179.199 157.896L183.257 160.239C183.584 160.428 183.542 160.756 183.166 160.974L179.145 163.295C178.768 163.512 178.199 163.536 177.873 163.348Z" fill="#06033E"/>
<path d="M171.449 159.638L167.39 157.295C167.064 157.107 167.105 156.778 167.482 156.561L171.504 154.239C171.88 154.022 172.449 153.999 172.775 154.187L176.834 156.53C177.16 156.718 177.118 157.047 176.742 157.264L172.72 159.586C172.344 159.802 171.774 159.827 171.449 159.638Z" fill="#06033E"/>
<path d="M165.024 155.929L160.966 153.586C160.639 153.398 160.681 153.069 161.057 152.852L165.079 150.53C165.456 150.313 166.025 150.29 166.35 150.478L170.409 152.821C170.736 153.009 170.694 153.338 170.318 153.555L166.296 155.877C165.919 156.094 165.351 156.117 165.024 155.929Z" fill="#06033E"/>
<path d="M158.601 152.22L154.542 149.877C154.216 149.689 154.257 149.36 154.633 149.143L158.655 146.821C159.031 146.604 159.6 146.58 159.926 146.768L163.985 149.112C164.31 149.3 164.269 149.629 163.893 149.846L159.871 152.167C159.496 152.385 158.926 152.408 158.601 152.22Z" fill="#06033E"/>
<path d="M184.141 166.966L180.083 164.623C179.756 164.435 179.798 164.106 180.174 163.889L184.196 161.566C184.573 161.349 185.142 161.326 185.467 161.514L189.526 163.857C189.853 164.045 189.811 164.374 189.435 164.591L185.413 166.914C185.036 167.131 184.467 167.154 184.141 166.966Z" fill="#06033E"/>
<path d="M190.409 170.585L186.351 168.242C186.024 168.054 186.066 167.725 186.442 167.508L190.464 165.186C190.84 164.969 191.409 164.946 191.735 165.134L195.794 167.477C196.12 167.665 196.078 167.994 195.702 168.211L191.68 170.534C191.304 170.75 190.735 170.773 190.409 170.585Z" fill="#06033E"/>
<path d="M196.678 174.204L192.619 171.861C192.292 171.673 192.334 171.344 192.71 171.126L196.732 168.804C197.108 168.587 197.677 168.564 198.004 168.752L202.062 171.095C202.388 171.283 202.347 171.612 201.971 171.829L197.949 174.151C197.572 174.369 197.004 174.392 196.678 174.204Z" fill="#06033E"/>
<path d="M202.946 177.823L198.887 175.48C198.56 175.292 198.602 174.963 198.978 174.746L203 172.423C203.376 172.206 203.945 172.183 204.271 172.371L208.33 174.714C208.656 174.902 208.614 175.231 208.238 175.448L204.217 177.771C203.841 177.988 203.272 178.011 202.946 177.823Z" fill="#06033E"/>
<path d="M209.214 181.442L205.156 179.099C204.829 178.911 204.871 178.582 205.247 178.365L209.269 176.043C209.645 175.826 210.214 175.803 210.54 175.991L214.599 178.334C214.925 178.522 214.883 178.851 214.507 179.068L210.485 181.391C210.109 181.606 209.54 181.63 209.214 181.442Z" fill="#06033E"/>
<path d="M215.482 185.061L211.424 182.718C211.097 182.529 211.139 182.201 211.515 181.983L215.537 179.661C215.914 179.444 216.483 179.42 216.809 179.609L220.867 181.952C221.194 182.14 221.152 182.469 220.776 182.686L216.754 185.008C216.377 185.226 215.808 185.249 215.482 185.061Z" fill="#06033E"/>
<path d="M221.751 188.68L217.692 186.337C217.366 186.149 217.407 185.82 217.783 185.603L221.806 183.281C222.182 183.064 222.751 183.041 223.077 183.229L227.135 185.572C227.461 185.76 227.42 186.089 227.044 186.306L223.023 188.628C222.646 188.845 222.077 188.868 221.751 188.68Z" fill="#06033E"/>
<path d="M228.019 192.299L223.961 189.956C223.635 189.767 223.676 189.439 224.052 189.221L228.074 186.9C228.451 186.683 229.02 186.659 229.346 186.847L233.404 189.191C233.73 189.379 233.689 189.707 233.313 189.925L229.291 192.246C228.914 192.464 228.345 192.487 228.019 192.299Z" fill="#06033E"/>
<path d="M234.287 195.918L230.229 193.575C229.902 193.387 229.944 193.058 230.32 192.841L234.342 190.519C234.718 190.302 235.287 190.279 235.613 190.467L239.671 192.81C239.998 192.998 239.957 193.327 239.58 193.544L235.558 195.867C235.182 196.083 234.613 196.106 234.287 195.918Z" fill="#06033E"/>
<path d="M174.572 154.396L170.513 152.052C170.187 151.864 170.229 151.536 170.605 151.318L174.626 148.997C175.002 148.779 175.572 148.756 175.898 148.944L179.957 151.288C180.283 151.476 180.242 151.804 179.865 152.022L175.844 154.343C175.467 154.561 174.898 154.584 174.572 154.396Z" fill="#06033E"/>
<path d="M168.335 150.795L164.276 148.452C163.951 148.263 163.991 147.935 164.368 147.717L168.389 145.395C168.765 145.178 169.335 145.154 169.661 145.342L173.72 147.686C174.046 147.874 174.004 148.203 173.628 148.42L169.607 150.741C169.23 150.96 168.661 150.983 168.335 150.795Z" fill="#06033E"/>
<path d="M162.098 147.194L158.04 144.851C157.714 144.663 157.755 144.334 158.131 144.116L162.153 141.794C162.529 141.577 163.098 141.554 163.424 141.742L167.482 144.085C167.808 144.273 167.767 144.602 167.391 144.819L163.37 147.141C162.993 147.359 162.424 147.382 162.098 147.194Z" fill="#06033E"/>
<path d="M155.861 143.593L151.802 141.249C151.477 141.061 151.518 140.733 151.894 140.515L155.915 138.194C156.292 137.976 156.861 137.953 157.186 138.141L161.245 140.485C161.572 140.673 161.531 141.001 161.154 141.219L157.132 143.54C156.756 143.758 156.187 143.781 155.861 143.593Z" fill="#06033E"/>
<path d="M162.275 139.89L158.216 137.547C157.89 137.359 157.931 137.03 158.308 136.813L159.637 136.045C160.013 135.828 160.583 135.805 160.908 135.993L164.967 138.336C165.293 138.524 165.252 138.853 164.875 139.07L163.546 139.838C163.17 140.054 162.6 140.078 162.275 139.89Z" fill="#06033E"/>
<path d="M170.414 144.589L166.355 142.246C166.03 142.058 166.071 141.729 166.447 141.512L167.776 140.744C168.153 140.527 168.722 140.504 169.047 140.692L173.106 143.035C173.433 143.223 173.391 143.552 173.015 143.769L171.685 144.537C171.309 144.754 170.74 144.777 170.414 144.589Z" fill="#06033E"/>
<path d="M176.625 148.175L172.566 145.832C172.24 145.644 172.281 145.315 172.658 145.098L173.987 144.33C174.363 144.113 174.933 144.09 175.259 144.278L179.318 146.621C179.643 146.809 179.602 147.138 179.226 147.355L177.897 148.123C177.521 148.34 176.951 148.363 176.625 148.175Z" fill="#06033E"/>
<path d="M182.836 151.761L178.777 149.418C178.452 149.23 178.493 148.901 178.869 148.684L180.198 147.916C180.575 147.699 181.144 147.676 181.469 147.864L185.528 150.207C185.855 150.395 185.813 150.724 185.437 150.941L184.107 151.709C183.731 151.926 183.162 151.949 182.836 151.761Z" fill="#06033E"/>
<path d="M189.047 155.347L184.988 153.004C184.663 152.816 184.703 152.487 185.08 152.27L186.409 151.502C186.785 151.285 187.355 151.262 187.68 151.45L191.739 153.793C192.065 153.981 192.024 154.31 191.647 154.527L190.318 155.295C189.943 155.512 189.373 155.535 189.047 155.347Z" fill="#06033E"/>
<path d="M223.723 175.367L219.664 173.024C219.338 172.836 219.379 172.507 219.755 172.29L221.085 171.523C221.461 171.305 222.03 171.282 222.356 171.47L226.415 173.813C226.741 174.001 226.699 174.33 226.323 174.548L224.994 175.315C224.618 175.531 224.049 175.556 223.723 175.367Z" fill="#06033E"/>
<path d="M229.934 178.953L225.875 176.609C225.549 176.421 225.59 176.093 225.967 175.875L227.296 175.108C227.672 174.891 228.242 174.867 228.568 175.055L232.627 177.399C232.953 177.587 232.911 177.916 232.535 178.133L231.206 178.9C230.829 179.118 230.259 179.142 229.934 178.953Z" fill="#06033E"/>
<path d="M236.145 182.539L232.087 180.195C231.76 180.007 231.802 179.678 232.178 179.461L233.507 178.694C233.884 178.476 234.453 178.453 234.779 178.641L238.837 180.985C239.163 181.173 239.122 181.501 238.746 181.719L237.416 182.486C237.04 182.703 236.471 182.728 236.145 182.539Z" fill="#06033E"/>
<path d="M242.356 186.125L238.297 183.782C237.971 183.593 238.013 183.265 238.389 183.047L239.718 182.28C240.094 182.063 240.664 182.039 240.989 182.227L245.048 184.571C245.374 184.759 245.333 185.088 244.957 185.305L243.627 186.072C243.251 186.29 242.682 186.313 242.356 186.125Z" fill="#06033E"/>
<path d="M180.84 158.015L176.781 155.672C176.456 155.484 176.497 155.155 176.873 154.938L180.894 152.616C181.27 152.399 181.84 152.376 182.165 152.564L186.224 154.907C186.55 155.095 186.509 155.424 186.133 155.641L182.111 157.963C181.736 158.179 181.166 158.203 180.84 158.015Z" fill="#06033E"/>
<path d="M187.109 161.634L183.05 159.29C182.724 159.102 182.766 158.773 183.142 158.556L187.163 156.234C187.539 156.017 188.109 155.994 188.434 156.182L192.493 158.525C192.819 158.713 192.778 159.042 192.401 159.259L188.38 161.581C188.004 161.798 187.434 161.822 187.109 161.634Z" fill="#06033E"/>
<path d="M193.377 165.253L189.318 162.91C188.992 162.722 189.034 162.393 189.41 162.175L193.431 159.854C193.807 159.637 194.377 159.613 194.702 159.801L198.761 162.145C199.087 162.333 199.046 162.662 198.67 162.879L194.647 165.201C194.272 165.418 193.703 165.441 193.377 165.253Z" fill="#06033E"/>
<path d="M199.645 168.872L195.586 166.529C195.26 166.341 195.302 166.012 195.678 165.795L199.7 163.473C200.076 163.256 200.646 163.233 200.971 163.421L205.03 165.764C205.356 165.952 205.315 166.281 204.938 166.498L200.917 168.82C200.541 169.036 199.971 169.06 199.645 168.872Z" fill="#06033E"/>
<path d="M205.914 172.491L201.855 170.147C201.53 169.959 201.57 169.631 201.947 169.413L205.969 167.092C206.345 166.874 206.915 166.851 207.24 167.039L211.299 169.382C211.624 169.571 211.584 169.899 211.207 170.117L207.186 172.439C206.809 172.655 206.239 172.679 205.914 172.491Z" fill="#06033E"/>
<path d="M212.182 176.11L208.123 173.767C207.797 173.579 207.838 173.25 208.215 173.033L212.237 170.711C212.613 170.494 213.183 170.47 213.508 170.659L217.567 173.002C217.892 173.19 217.852 173.519 217.475 173.736L213.453 176.058C213.077 176.274 212.507 176.298 212.182 176.11Z" fill="#06033E"/>
<path d="M218.45 179.728L214.391 177.385C214.065 177.197 214.107 176.868 214.483 176.651L218.505 174.329C218.881 174.112 219.451 174.089 219.776 174.277L223.835 176.62C224.161 176.808 224.12 177.137 223.743 177.354L219.721 179.676C219.345 179.893 218.776 179.917 218.45 179.728Z" fill="#06033E"/>
<path d="M224.718 183.348L220.659 181.005C220.333 180.817 220.375 180.488 220.751 180.27L224.772 177.949C225.148 177.732 225.718 177.708 226.043 177.896L230.102 180.24C230.428 180.428 230.387 180.757 230.011 180.974L225.989 183.296C225.614 183.513 225.044 183.536 224.718 183.348Z" fill="#06033E"/>
<path d="M230.987 186.966L226.928 184.623C226.603 184.435 226.644 184.106 227.02 183.889L231.042 181.567C231.418 181.35 231.988 181.327 232.313 181.515L236.372 183.858C236.698 184.046 236.657 184.375 236.28 184.592L232.259 186.914C231.882 187.131 231.312 187.155 230.987 186.966Z" fill="#06033E"/>
<path d="M145.004 158.461L133.05 151.56C132.724 151.372 132.765 151.043 133.141 150.826L137.163 148.504C137.539 148.287 138.108 148.263 138.435 148.452L150.389 155.353C150.714 155.541 150.674 155.87 150.297 156.087L146.275 158.409C145.899 158.626 145.329 158.65 145.004 158.461Z" fill="#06033E"/>
<path d="M222.011 202.922L210.057 196.02C209.731 195.832 209.772 195.504 210.148 195.286L214.171 192.965C214.547 192.747 215.116 192.724 215.442 192.912L227.396 199.814C227.722 200.002 227.681 200.331 227.304 200.548L223.282 202.87C222.906 203.086 222.337 203.11 222.011 202.922Z" fill="#06033E"/>
<path d="M196.943 196.443L192.884 194.099C192.558 193.911 192.6 193.582 192.976 193.365L197.767 190.599C198.143 190.382 198.713 190.358 199.038 190.547L203.097 192.89C203.423 193.078 203.382 193.407 203.006 193.624L198.214 196.39C197.839 196.607 197.269 196.631 196.943 196.443Z" fill="#06033E"/>
<path d="M151.423 170.161L144.932 166.414C144.606 166.226 144.647 165.897 145.023 165.68L149.815 162.914C150.191 162.696 150.76 162.673 151.086 162.861L157.577 166.609C157.903 166.797 157.862 167.126 157.485 167.343L152.694 170.109C152.318 170.326 151.749 170.35 151.423 170.161Z" fill="#06033E"/>
<path d="M190.904 192.956L184.413 189.209C184.087 189.021 184.128 188.692 184.504 188.475L189.296 185.709C189.672 185.491 190.241 185.468 190.567 185.656L197.058 189.404C197.383 189.592 197.343 189.921 196.966 190.138L192.176 192.904C191.799 193.12 191.229 193.145 190.904 192.956Z" fill="#06033E"/>
<path d="M160.467 175.383L153.976 171.636C153.65 171.448 153.691 171.119 154.067 170.902L158.859 168.136C159.235 167.918 159.804 167.895 160.13 168.083L166.621 171.831C166.947 172.019 166.906 172.348 166.529 172.565L161.738 175.331C161.362 175.547 160.792 175.572 160.467 175.383Z" fill="#06033E"/>
<path d="M160.173 168.108L188.396 184.403C188.746 184.605 188.746 184.933 188.396 185.135L183.51 187.955C183.16 188.158 182.592 188.158 182.242 187.955L154.019 171.661L160.173 168.108Z" fill="#06033E"/>
<path d="M214.462 203.004L218.984 205.615C219.251 205.769 219.218 206.039 218.909 206.217L216.948 207.348C216.64 207.526 216.173 207.545 215.906 207.391L211.385 204.781C211.118 204.627 211.152 204.357 211.46 204.179L213.42 203.048C213.729 202.87 214.195 202.85 214.462 203.004Z" fill="#06033E"/>
<path d="M208.142 199.355L212.663 201.965C212.93 202.119 212.897 202.389 212.588 202.567L210.629 203.698C210.32 203.877 209.854 203.896 209.587 203.742L205.066 201.131C204.799 200.977 204.832 200.708 205.141 200.529L207.1 199.398C207.408 199.221 207.874 199.201 208.142 199.355Z" fill="#06033E"/>
<path d="M201.873 195.737L206.395 198.347C206.662 198.501 206.629 198.771 206.32 198.949L204.361 200.08C204.052 200.258 203.586 200.277 203.319 200.123L198.797 197.513C198.53 197.359 198.563 197.089 198.872 196.911L200.831 195.78C201.14 195.602 201.606 195.583 201.873 195.737Z" fill="#06033E"/>
<path d="M211.603 197.357L216.124 199.968C216.391 200.122 216.358 200.391 216.049 200.57L214.089 201.701C213.781 201.879 213.314 201.898 213.047 201.744L208.525 199.134C208.258 198.98 208.291 198.71 208.6 198.532L210.56 197.401C210.869 197.222 211.336 197.202 211.603 197.357Z" fill="#06033E"/>
</g>
<g opacity="0.4">
<path d="M130.185 157.9L126.127 155.557C125.8 155.369 125.842 155.04 126.218 154.823L131.009 152.057C131.385 151.84 131.954 151.816 132.281 152.004L136.339 154.348C136.666 154.536 136.624 154.864 136.248 155.082L131.457 157.848C131.081 158.065 130.512 158.088 130.185 157.9Z" fill="black"/>
<path d="M136.454 161.52L132.395 159.176C132.068 158.988 132.11 158.659 132.486 158.442L137.278 155.676C137.654 155.459 138.223 155.436 138.549 155.624L142.608 157.967C142.934 158.155 142.892 158.484 142.516 158.701L137.725 161.467C137.349 161.684 136.78 161.708 136.454 161.52Z" fill="black"/>
<path d="M142.722 165.138L138.664 162.795C138.338 162.607 138.379 162.278 138.755 162.061L143.547 159.295C143.923 159.077 144.492 159.054 144.818 159.242L148.876 161.585C149.202 161.773 149.161 162.102 148.785 162.32L143.994 165.086C143.617 165.303 143.048 165.326 142.722 165.138Z" fill="black"/>
<path d="M151.392 162.15L147.333 159.806C147.007 159.618 147.048 159.289 147.425 159.072L151.446 156.751C151.822 156.533 152.392 156.51 152.717 156.698L156.776 159.041C157.101 159.23 157.061 159.558 156.684 159.776L152.663 162.097C152.287 162.314 151.717 162.338 151.392 162.15Z" fill="black"/>
<path d="M157.66 165.769L153.601 163.426C153.275 163.238 153.316 162.909 153.693 162.692L157.715 160.37C158.091 160.153 158.661 160.129 158.986 160.318L163.045 162.661C163.371 162.849 163.33 163.178 162.953 163.395L158.931 165.717C158.555 165.933 157.985 165.957 157.66 165.769Z" fill="black"/>
<path d="M163.928 169.387L159.869 167.044C159.543 166.856 159.585 166.527 159.961 166.31L163.983 163.988C164.359 163.771 164.929 163.748 165.254 163.936L169.313 166.279C169.639 166.467 169.598 166.796 169.221 167.013L165.199 169.335C164.824 169.552 164.254 169.576 163.928 169.387Z" fill="black"/>
<path d="M170.196 173.007L166.137 170.664C165.811 170.475 165.853 170.147 166.229 169.929L170.25 167.608C170.626 167.391 171.196 167.367 171.521 167.555L175.58 169.899C175.906 170.087 175.865 170.416 175.489 170.633L171.467 172.954C171.092 173.171 170.522 173.195 170.196 173.007Z" fill="black"/>
<path d="M176.465 176.625L172.406 174.282C172.08 174.094 172.121 173.765 172.498 173.548L176.52 171.226C176.896 171.009 177.466 170.986 177.791 171.174L181.85 173.517C182.175 173.705 182.134 174.034 181.758 174.251L177.737 176.573C177.36 176.79 176.79 176.813 176.465 176.625Z" fill="black"/>
<path d="M182.733 180.245L178.674 177.901C178.348 177.713 178.39 177.384 178.766 177.167L182.787 174.846C183.163 174.628 183.733 174.605 184.058 174.793L188.117 177.136C188.443 177.324 188.402 177.653 188.026 177.871L184.004 180.192C183.628 180.409 183.059 180.433 182.733 180.245Z" fill="black"/>
<path d="M189.001 183.864L184.942 181.521C184.616 181.333 184.658 181.004 185.034 180.787L189.055 178.465C189.431 178.248 190.001 178.224 190.326 178.413L194.385 180.756C194.711 180.944 194.67 181.273 194.294 181.49L190.271 183.812C189.897 184.028 189.327 184.052 189.001 183.864Z" fill="black"/>
<path d="M195.269 187.482L191.21 185.139C190.885 184.951 190.926 184.622 191.302 184.405L195.324 182.083C195.7 181.866 196.27 181.843 196.595 182.031L200.654 184.374C200.98 184.562 200.939 184.891 200.562 185.108L196.54 187.43C196.165 187.647 195.595 187.671 195.269 187.482Z" fill="black"/>
<path d="M201.538 191.102L197.479 188.759C197.154 188.57 197.194 188.242 197.571 188.024L201.593 185.703C201.969 185.485 202.539 185.462 202.864 185.65L206.923 187.994C207.249 188.182 207.208 188.51 206.831 188.728L202.81 191.049C202.433 191.267 201.863 191.29 201.538 191.102Z" fill="black"/>
<path d="M207.806 194.72L203.747 192.377C203.421 192.189 203.463 191.86 203.839 191.643L207.86 189.321C208.236 189.104 208.806 189.081 209.131 189.269L213.19 191.612C213.516 191.8 213.475 192.129 213.099 192.346L209.076 194.669C208.701 194.885 208.132 194.908 207.806 194.72Z" fill="black"/>
<path d="M160.628 160.437L156.569 158.094C156.242 157.905 156.284 157.577 156.66 157.359L160.682 155.038C161.058 154.82 161.627 154.797 161.954 154.985L166.012 157.329C166.338 157.517 166.297 157.845 165.921 158.063L161.899 160.384C161.522 160.601 160.953 160.625 160.628 160.437Z" fill="black"/>
<path d="M154.265 156.763L150.207 154.42C149.881 154.232 149.922 153.903 150.298 153.686L154.32 151.363C154.696 151.146 155.265 151.123 155.591 151.311L159.65 153.654C159.977 153.842 159.935 154.171 159.559 154.388L155.537 156.71C155.161 156.928 154.592 156.951 154.265 156.763Z" fill="black"/>
<path d="M147.893 153.084L139.151 148.037C138.826 147.849 138.867 147.52 139.243 147.303L143.264 144.981C143.641 144.764 144.21 144.741 144.535 144.929L153.277 149.976C153.604 150.164 153.562 150.493 153.186 150.71L149.164 153.032C148.789 153.249 148.22 153.272 147.893 153.084Z" fill="black"/>
<path d="M152.348 148.61L145.253 144.514C144.927 144.325 144.968 143.997 145.345 143.779L149.366 141.457C149.742 141.24 150.311 141.216 150.637 141.404L157.732 145.501C158.057 145.689 158.016 146.018 157.64 146.235L153.619 148.557C153.242 148.775 152.673 148.799 152.348 148.61Z" fill="black"/>
<path d="M166.896 164.055L162.837 161.712C162.51 161.524 162.552 161.195 162.928 160.978L166.95 158.655C167.326 158.438 167.895 158.415 168.221 158.603L172.28 160.946C172.605 161.134 172.564 161.463 172.188 161.68L168.167 164.002C167.791 164.22 167.222 164.243 166.896 164.055Z" fill="black"/>
<path d="M173.164 167.674L169.105 165.331C168.779 165.143 168.82 164.814 169.196 164.597L173.218 162.275C173.594 162.057 174.163 162.034 174.489 162.222L178.548 164.565C178.874 164.753 178.832 165.082 178.456 165.3L174.434 167.621C174.059 167.839 173.49 167.863 173.164 167.674Z" fill="black"/>
<path d="M179.433 171.293L175.374 168.95C175.047 168.762 175.089 168.433 175.465 168.216L179.487 165.894C179.864 165.677 180.433 165.653 180.759 165.841L184.817 168.185C185.144 168.373 185.102 168.702 184.726 168.919L180.704 171.24C180.327 171.458 179.758 171.481 179.433 171.293Z" fill="black"/>
<path d="M185.701 174.912L181.642 172.569C181.315 172.381 181.357 172.052 181.733 171.835L185.755 169.513C186.132 169.296 186.701 169.272 187.027 169.461L191.085 171.804C191.411 171.992 191.37 172.321 190.994 172.538L186.972 174.86C186.595 175.077 186.026 175.1 185.701 174.912Z" fill="black"/>
<path d="M191.969 178.531L187.91 176.188C187.584 176 187.625 175.671 188.001 175.454L192.023 173.132C192.399 172.915 192.968 172.892 193.294 173.08L197.353 175.423C197.678 175.611 197.637 175.94 197.261 176.157L193.239 178.479C192.864 178.695 192.295 178.72 191.969 178.531Z" fill="black"/>
<path d="M198.237 182.15L194.178 179.807C193.852 179.619 193.893 179.29 194.269 179.073L198.292 176.751C198.668 176.534 199.237 176.511 199.563 176.699L203.622 179.042C203.948 179.23 203.906 179.559 203.53 179.776L199.508 182.098C199.132 182.315 198.563 182.338 198.237 182.15Z" fill="black"/>
<path d="M204.506 185.769L200.447 183.426C200.12 183.238 200.162 182.909 200.538 182.692L204.56 180.37C204.937 180.153 205.506 180.13 205.832 180.318L209.89 182.661C210.217 182.849 210.175 183.178 209.799 183.395L205.777 185.717C205.4 185.933 204.831 185.957 204.506 185.769Z" fill="black"/>
<path d="M210.774 189.388L206.715 187.044C206.388 186.856 206.43 186.528 206.806 186.31L210.828 183.989C211.205 183.771 211.774 183.748 212.1 183.936L216.158 186.279C216.485 186.468 216.443 186.796 216.067 187.014L212.045 189.335C211.669 189.552 211.1 189.577 210.774 189.388Z" fill="black"/>
<path d="M217.042 193.007L212.983 190.664C212.657 190.476 212.698 190.147 213.074 189.93L217.096 187.608C217.472 187.391 218.041 187.367 218.368 187.556L222.426 189.899C222.752 190.087 222.711 190.416 222.335 190.633L218.314 192.955C217.937 193.172 217.368 193.195 217.042 193.007Z" fill="black"/>
<path d="M228.185 199.441L219.329 194.327C219.004 194.139 219.044 193.81 219.421 193.593L223.443 191.271C223.819 191.053 224.388 191.03 224.714 191.218L233.57 196.332C233.896 196.52 233.855 196.849 233.478 197.066L229.457 199.387C229.081 199.606 228.511 199.629 228.185 199.441Z" fill="black"/>
<path d="M240.389 192.395L232.914 188.079C232.588 187.891 232.629 187.562 233.006 187.345L237.028 185.024C237.404 184.806 237.973 184.783 238.299 184.971L245.774 189.287C246.099 189.475 246.059 189.804 245.682 190.021L241.66 192.343C241.284 192.56 240.715 192.584 240.389 192.395Z" fill="black"/>
<path d="M177.873 163.348L173.814 161.004C173.487 160.816 173.529 160.487 173.905 160.27L177.927 157.949C178.303 157.731 178.872 157.708 179.199 157.896L183.257 160.239C183.584 160.428 183.542 160.756 183.166 160.974L179.145 163.295C178.768 163.512 178.199 163.536 177.873 163.348Z" fill="black"/>
<path d="M171.449 159.638L167.39 157.295C167.064 157.107 167.105 156.778 167.482 156.561L171.504 154.239C171.88 154.022 172.449 153.999 172.775 154.187L176.834 156.53C177.16 156.718 177.118 157.047 176.742 157.264L172.72 159.586C172.344 159.802 171.774 159.827 171.449 159.638Z" fill="black"/>
<path d="M165.024 155.929L160.966 153.586C160.639 153.398 160.681 153.069 161.057 152.852L165.079 150.53C165.456 150.313 166.025 150.29 166.35 150.478L170.409 152.821C170.736 153.009 170.694 153.338 170.318 153.555L166.296 155.877C165.919 156.094 165.351 156.117 165.024 155.929Z" fill="black"/>
<path d="M158.601 152.22L154.542 149.877C154.216 149.689 154.257 149.36 154.633 149.143L158.655 146.821C159.031 146.604 159.6 146.58 159.926 146.768L163.985 149.112C164.31 149.3 164.269 149.629 163.893 149.846L159.871 152.167C159.496 152.385 158.926 152.408 158.601 152.22Z" fill="black"/>
<path d="M184.141 166.966L180.083 164.623C179.756 164.435 179.798 164.106 180.174 163.889L184.196 161.566C184.573 161.349 185.142 161.326 185.467 161.514L189.526 163.857C189.853 164.045 189.811 164.374 189.435 164.591L185.413 166.914C185.036 167.131 184.467 167.154 184.141 166.966Z" fill="black"/>
<path d="M190.409 170.585L186.351 168.242C186.024 168.054 186.066 167.725 186.442 167.508L190.464 165.186C190.84 164.969 191.409 164.946 191.735 165.134L195.794 167.477C196.12 167.665 196.078 167.994 195.702 168.211L191.68 170.534C191.304 170.75 190.735 170.773 190.409 170.585Z" fill="black"/>
<path d="M196.678 174.204L192.619 171.861C192.292 171.673 192.334 171.344 192.71 171.126L196.732 168.804C197.108 168.587 197.677 168.564 198.004 168.752L202.062 171.095C202.388 171.283 202.347 171.612 201.971 171.829L197.949 174.151C197.572 174.369 197.004 174.392 196.678 174.204Z" fill="black"/>
<path d="M202.946 177.823L198.887 175.48C198.56 175.292 198.602 174.963 198.978 174.746L203 172.423C203.376 172.206 203.945 172.183 204.271 172.371L208.33 174.714C208.656 174.902 208.614 175.231 208.238 175.448L204.217 177.771C203.841 177.988 203.272 178.011 202.946 177.823Z" fill="black"/>
<path d="M209.214 181.442L205.156 179.099C204.829 178.911 204.871 178.582 205.247 178.365L209.269 176.043C209.645 175.826 210.214 175.803 210.54 175.991L214.599 178.334C214.925 178.522 214.883 178.851 214.507 179.068L210.485 181.391C210.109 181.606 209.54 181.63 209.214 181.442Z" fill="black"/>
<path d="M215.482 185.061L211.424 182.718C211.097 182.529 211.139 182.201 211.515 181.983L215.537 179.661C215.914 179.444 216.483 179.42 216.809 179.609L220.867 181.952C221.194 182.14 221.152 182.469 220.776 182.686L216.754 185.008C216.377 185.226 215.808 185.249 215.482 185.061Z" fill="black"/>
<path d="M221.751 188.68L217.692 186.337C217.366 186.149 217.407 185.82 217.783 185.603L221.806 183.281C222.182 183.064 222.751 183.041 223.077 183.229L227.135 185.572C227.461 185.76 227.42 186.089 227.044 186.306L223.023 188.628C222.646 188.845 222.077 188.868 221.751 188.68Z" fill="black"/>
<path d="M228.019 192.299L223.961 189.956C223.635 189.767 223.676 189.439 224.052 189.221L228.074 186.9C228.451 186.683 229.02 186.659 229.346 186.847L233.404 189.191C233.73 189.379 233.689 189.707 233.313 189.925L229.291 192.246C228.914 192.464 228.345 192.487 228.019 192.299Z" fill="black"/>
<path d="M234.287 195.918L230.229 193.575C229.902 193.387 229.944 193.058 230.32 192.841L234.342 190.519C234.718 190.302 235.287 190.279 235.613 190.467L239.671 192.81C239.998 192.998 239.957 193.327 239.58 193.544L235.558 195.867C235.182 196.083 234.613 196.106 234.287 195.918Z" fill="black"/>
<path d="M174.572 154.396L170.513 152.052C170.187 151.864 170.229 151.536 170.605 151.318L174.626 148.997C175.002 148.779 175.572 148.756 175.898 148.944L179.957 151.288C180.283 151.476 180.242 151.804 179.865 152.022L175.844 154.343C175.467 154.561 174.898 154.584 174.572 154.396Z" fill="black"/>
<path d="M168.335 150.795L164.276 148.452C163.951 148.263 163.991 147.935 164.368 147.717L168.389 145.395C168.765 145.178 169.335 145.154 169.661 145.342L173.72 147.686C174.046 147.874 174.004 148.203 173.628 148.42L169.607 150.741C169.23 150.96 168.661 150.983 168.335 150.795Z" fill="black"/>
<path d="M162.098 147.194L158.04 144.851C157.714 144.663 157.755 144.334 158.131 144.116L162.153 141.794C162.529 141.577 163.098 141.554 163.424 141.742L167.482 144.085C167.808 144.273 167.767 144.602 167.391 144.819L163.37 147.141C162.993 147.359 162.424 147.382 162.098 147.194Z" fill="black"/>
<path d="M155.861 143.593L151.802 141.249C151.477 141.061 151.518 140.733 151.894 140.515L155.915 138.194C156.292 137.976 156.861 137.953 157.186 138.141L161.245 140.485C161.572 140.673 161.531 141.001 161.154 141.219L157.132 143.54C156.756 143.758 156.187 143.781 155.861 143.593Z" fill="black"/>
<path d="M162.275 139.89L158.216 137.547C157.89 137.359 157.931 137.03 158.308 136.813L159.637 136.045C160.013 135.828 160.583 135.805 160.908 135.993L164.967 138.336C165.293 138.524 165.252 138.853 164.875 139.07L163.546 139.838C163.17 140.054 162.6 140.078 162.275 139.89Z" fill="black"/>
<path d="M170.414 144.589L166.355 142.246C166.03 142.058 166.071 141.729 166.447 141.512L167.776 140.744C168.153 140.527 168.722 140.504 169.047 140.692L173.106 143.035C173.433 143.223 173.391 143.552 173.015 143.769L171.685 144.537C171.309 144.754 170.74 144.777 170.414 144.589Z" fill="black"/>
<path d="M176.625 148.175L172.566 145.832C172.24 145.644 172.281 145.315 172.658 145.098L173.987 144.33C174.363 144.113 174.933 144.09 175.259 144.278L179.318 146.621C179.643 146.809 179.602 147.138 179.226 147.355L177.897 148.123C177.521 148.34 176.951 148.363 176.625 148.175Z" fill="black"/>
<path d="M182.836 151.761L178.777 149.418C178.452 149.23 178.493 148.901 178.869 148.684L180.198 147.916C180.575 147.699 181.144 147.676 181.469 147.864L185.528 150.207C185.855 150.395 185.813 150.724 185.437 150.941L184.107 151.709C183.731 151.926 183.162 151.949 182.836 151.761Z" fill="black"/>
<path d="M189.047 155.347L184.988 153.004C184.663 152.816 184.703 152.487 185.08 152.27L186.409 151.502C186.785 151.285 187.355 151.262 187.68 151.45L191.739 153.793C192.065 153.981 192.024 154.31 191.647 154.527L190.318 155.295C189.943 155.512 189.373 155.535 189.047 155.347Z" fill="black"/>
<path d="M223.723 175.367L219.664 173.024C219.338 172.836 219.379 172.507 219.755 172.29L221.085 171.523C221.461 171.305 222.03 171.282 222.356 171.47L226.415 173.813C226.741 174.001 226.699 174.33 226.323 174.548L224.994 175.315C224.618 175.531 224.049 175.556 223.723 175.367Z" fill="black"/>
<path d="M229.934 178.953L225.875 176.609C225.549 176.421 225.59 176.093 225.967 175.875L227.296 175.108C227.672 174.891 228.242 174.867 228.568 175.055L232.627 177.399C232.953 177.587 232.911 177.916 232.535 178.133L231.206 178.9C230.829 179.118 230.259 179.142 229.934 178.953Z" fill="black"/>
<path d="M236.145 182.539L232.087 180.195C231.76 180.007 231.802 179.678 232.178 179.461L233.507 178.694C233.884 178.476 234.453 178.453 234.779 178.641L238.837 180.985C239.163 181.173 239.122 181.501 238.746 181.719L237.416 182.486C237.04 182.703 236.471 182.728 236.145 182.539Z" fill="black"/>
<path d="M242.356 186.125L238.297 183.782C237.971 183.593 238.013 183.265 238.389 183.047L239.718 182.28C240.094 182.063 240.664 182.039 240.989 182.227L245.048 184.571C245.374 184.759 245.333 185.088 244.957 185.305L243.627 186.072C243.251 186.29 242.682 186.313 242.356 186.125Z" fill="black"/>
<path d="M180.84 158.015L176.781 155.672C176.456 155.484 176.497 155.155 176.873 154.938L180.894 152.616C181.27 152.399 181.84 152.376 182.165 152.564L186.224 154.907C186.55 155.095 186.509 155.424 186.133 155.641L182.111 157.963C181.736 158.179 181.166 158.203 180.84 158.015Z" fill="black"/>
<path d="M187.109 161.634L183.05 159.29C182.724 159.102 182.766 158.773 183.142 158.556L187.163 156.234C187.539 156.017 188.109 155.994 188.434 156.182L192.493 158.525C192.819 158.713 192.778 159.042 192.401 159.259L188.38 161.581C188.004 161.798 187.434 161.822 187.109 161.634Z" fill="black"/>
<path d="M193.377 165.253L189.318 162.91C188.992 162.722 189.034 162.393 189.41 162.175L193.431 159.854C193.807 159.637 194.377 159.613 194.702 159.801L198.761 162.145C199.087 162.333 199.046 162.662 198.67 162.879L194.647 165.201C194.272 165.418 193.703 165.441 193.377 165.253Z" fill="black"/>
<path d="M199.645 168.872L195.586 166.529C195.26 166.341 195.302 166.012 195.678 165.795L199.7 163.473C200.076 163.256 200.646 163.233 200.971 163.421L205.03 165.764C205.356 165.952 205.315 166.281 204.938 166.498L200.917 168.82C200.541 169.036 199.971 169.06 199.645 168.872Z" fill="black"/>
<path d="M205.914 172.491L201.855 170.147C201.53 169.959 201.57 169.631 201.947 169.413L205.969 167.092C206.345 166.874 206.915 166.851 207.24 167.039L211.299 169.382C211.624 169.571 211.584 169.899 211.207 170.117L207.186 172.439C206.809 172.655 206.239 172.679 205.914 172.491Z" fill="black"/>
<path d="M212.182 176.11L208.123 173.767C207.797 173.579 207.838 173.25 208.215 173.033L212.237 170.711C212.613 170.494 213.183 170.47 213.508 170.659L217.567 173.002C217.892 173.19 217.852 173.519 217.475 173.736L213.453 176.058C213.077 176.274 212.507 176.298 212.182 176.11Z" fill="black"/>
<path d="M218.45 179.728L214.391 177.385C214.065 177.197 214.107 176.868 214.483 176.651L218.505 174.329C218.881 174.112 219.451 174.089 219.776 174.277L223.835 176.62C224.161 176.808 224.12 177.137 223.743 177.354L219.721 179.676C219.345 179.893 218.776 179.917 218.45 179.728Z" fill="black"/>
<path d="M224.718 183.348L220.659 181.005C220.333 180.817 220.375 180.488 220.751 180.27L224.772 177.949C225.148 177.732 225.718 177.708 226.043 177.896L230.102 180.24C230.428 180.428 230.387 180.757 230.011 180.974L225.989 183.296C225.614 183.513 225.044 183.536 224.718 183.348Z" fill="black"/>
<path d="M230.987 186.966L226.928 184.623C226.603 184.435 226.644 184.106 227.02 183.889L231.042 181.567C231.418 181.35 231.988 181.327 232.313 181.515L236.372 183.858C236.698 184.046 236.657 184.375 236.28 184.592L232.259 186.914C231.882 187.131 231.312 187.155 230.987 186.966Z" fill="black"/>
<path d="M145.004 158.461L133.05 151.56C132.724 151.372 132.765 151.043 133.141 150.826L137.163 148.504C137.539 148.287 138.108 148.263 138.435 148.452L150.389 155.353C150.714 155.541 150.674 155.87 150.297 156.087L146.275 158.409C145.899 158.626 145.329 158.65 145.004 158.461Z" fill="black"/>
<path d="M222.011 202.922L210.057 196.02C209.731 195.832 209.772 195.504 210.148 195.286L214.171 192.965C214.547 192.747 215.116 192.724 215.442 192.912L227.396 199.814C227.722 200.002 227.681 200.331 227.304 200.548L223.282 202.87C222.906 203.086 222.337 203.11 222.011 202.922Z" fill="black"/>
<path d="M196.943 196.443L192.884 194.099C192.558 193.911 192.6 193.582 192.976 193.365L197.767 190.599C198.143 190.382 198.713 190.358 199.038 190.547L203.097 192.89C203.423 193.078 203.382 193.407 203.006 193.624L198.214 196.39C197.839 196.607 197.269 196.631 196.943 196.443Z" fill="black"/>
<path d="M151.423 170.161L144.932 166.414C144.606 166.226 144.647 165.897 145.023 165.68L149.815 162.914C150.191 162.696 150.76 162.673 151.086 162.861L157.577 166.609C157.903 166.797 157.862 167.126 157.485 167.343L152.694 170.109C152.318 170.326 151.749 170.35 151.423 170.161Z" fill="black"/>
<path d="M190.904 192.956L184.413 189.209C184.087 189.021 184.128 188.692 184.504 188.475L189.296 185.709C189.672 185.491 190.241 185.468 190.567 185.656L197.058 189.404C197.383 189.592 197.343 189.921 196.966 190.138L192.176 192.904C191.799 193.12 191.229 193.145 190.904 192.956Z" fill="black"/>
<path d="M160.467 175.383L153.976 171.636C153.65 171.448 153.691 171.119 154.067 170.902L158.859 168.136C159.235 167.918 159.804 167.895 160.13 168.083L166.621 171.831C166.947 172.019 166.906 172.348 166.529 172.565L161.738 175.331C161.362 175.547 160.792 175.572 160.467 175.383Z" fill="black"/>
<path d="M160.173 168.108L188.396 184.403C188.746 184.605 188.746 184.933 188.396 185.135L183.51 187.955C183.16 188.158 182.592 188.158 182.242 187.955L154.019 171.661L160.173 168.108Z" fill="black"/>
<path d="M214.462 203.004L218.984 205.615C219.251 205.769 219.218 206.039 218.909 206.217L216.948 207.348C216.64 207.526 216.173 207.545 215.906 207.391L211.385 204.781C211.118 204.627 211.152 204.357 211.46 204.179L213.42 203.048C213.729 202.87 214.195 202.85 214.462 203.004Z" fill="black"/>
<path d="M208.142 199.355L212.663 201.965C212.93 202.119 212.897 202.389 212.588 202.567L210.629 203.698C210.32 203.877 209.854 203.896 209.587 203.742L205.066 201.131C204.799 200.977 204.832 200.708 205.141 200.529L207.1 199.398C207.408 199.221 207.874 199.201 208.142 199.355Z" fill="black"/>
<path d="M201.873 195.737L206.395 198.347C206.662 198.501 206.629 198.771 206.32 198.949L204.361 200.08C204.052 200.258 203.586 200.277 203.319 200.123L198.797 197.513C198.53 197.359 198.563 197.089 198.872 196.911L200.831 195.78C201.14 195.602 201.606 195.583 201.873 195.737Z" fill="black"/>
<path d="M211.603 197.357L216.124 199.968C216.391 200.122 216.358 200.391 216.049 200.57L214.089 201.701C213.781 201.879 213.314 201.898 213.047 201.744L208.525 199.134C208.258 198.98 208.291 198.71 208.6 198.532L210.56 197.401C210.869 197.222 211.336 197.202 211.603 197.357Z" fill="black"/>
</g>
<path d="M277.942 190.035L158.19 120.896C156.307 119.809 155.324 117.159 155.995 114.979L183.077 27.0511C183.748 24.871 185.818 23.9845 187.701 25.0716L307.453 94.2107C309.336 95.2979 310.319 97.9466 309.648 100.127L282.566 188.056C281.896 190.237 279.826 191.122 277.942 190.035Z" fill="black"/>
<path d="M276.814 186.956L160.661 119.84C158.859 118.799 157.918 116.265 158.56 114.178L184.451 30.1187C185.093 28.0318 187.074 27.1836 188.876 28.2241L305.029 95.3405C306.831 96.381 307.772 98.9157 307.13 101.003L281.239 185.062C280.597 187.149 278.616 187.997 276.814 186.956Z" fill="url(#paint1_linear_4_356)"/>
<path opacity="0.4" d="M276.814 186.956L160.661 119.84C158.859 118.799 157.918 116.265 158.56 114.178L184.451 30.1187C185.093 28.0318 187.074 27.1836 188.876 28.2241L305.029 95.3405C306.831 96.381 307.772 98.9157 307.13 101.003L281.239 185.062C280.597 187.149 278.616 187.997 276.814 186.956Z" fill="#06033E"/>
<path d="M276.814 186.956L160.661 119.84C158.859 118.799 157.918 116.265 158.56 114.178L184.451 30.1187C185.093 28.0318 187.074 27.1836 188.876 28.2241L305.029 95.3405C306.831 96.381 307.772 98.9157 307.13 101.003L281.239 185.062C280.597 187.149 278.616 187.997 276.814 186.956Z" fill="#5AA7FF"/>
<path opacity="0.5" d="M270.573 161.268L191.944 115.872C190.707 115.158 190.062 113.419 190.502 111.987L208.284 54.2526C208.724 52.8209 210.083 52.239 211.32 52.9524L289.95 98.3487C291.186 99.0629 291.832 100.802 291.392 102.234L273.61 159.968C273.169 161.4 271.81 161.981 270.573 161.268Z" fill="#171620"/>
<path d="M259.949 162.662L181.32 117.265C180.083 116.551 179.437 114.812 179.878 113.38L197.66 55.6462C198.1 54.2145 199.459 53.6326 200.696 54.346L279.325 99.7431C280.561 100.457 281.206 102.196 280.766 103.628L262.984 161.362C262.545 162.794 261.186 163.376 259.949 162.662Z" fill="#3F3F3F"/>
<g opacity="0.5">
<path d="M260.01 163.549L181.381 118.153C180.144 117.439 179.498 115.7 179.939 114.268L197.721 56.5336C198.161 55.1019 199.52 54.52 200.757 55.2334L279.386 100.631C280.622 101.345 281.267 103.084 280.827 104.515L263.045 162.25C262.606 163.681 261.247 164.263 260.01 163.549Z" fill="black"/>
</g>
<path d="M279.326 99.7431L200.696 54.346C199.921 53.899 199.099 53.9606 198.484 54.4209C198.854 54.4101 199.241 54.4941 199.619 54.7114L278.249 100.108C279.485 100.821 280.13 102.561 279.69 103.993L261.908 161.727C261.743 162.261 261.45 162.677 261.084 162.951C261.927 162.926 262.678 162.355 262.985 161.361L280.767 103.626C281.208 102.196 280.562 100.456 279.326 99.7431Z" fill="white"/>
<path opacity="0.4" d="M160.779 209.808C159.695 209.808 158.658 209.582 157.866 209.125V209.126L126.362 190.938C125.527 190.455 125.068 189.767 125.068 188.997C125.067 188.104 125.701 187.226 126.805 186.588L143.02 177.226C145.002 176.083 147.91 175.97 149.644 176.97L181.146 195.158C181.981 195.64 182.441 196.329 182.442 197.099C182.442 197.992 181.808 198.87 180.704 199.507L164.487 208.87C163.414 209.491 162.064 209.808 160.779 209.808ZM146.746 177.209C145.608 177.209 144.398 177.483 143.477 178.015L127.261 187.377C126.445 187.847 125.978 188.438 125.978 188.997C125.978 189.548 126.435 189.928 126.818 190.15L158.322 208.338C159.751 209.161 162.366 209.046 164.034 208.081L180.25 198.719C181.065 198.249 181.533 197.658 181.533 197.099C181.533 196.547 181.076 196.168 180.692 195.946L149.189 177.758C148.55 177.389 147.671 177.209 146.746 177.209Z" fill="white"/>
<path d="M219.848 84.6355L214.987 81.8287C214.536 81.5681 214.295 80.9421 214.447 80.431C214.599 79.9191 215.089 79.716 215.54 79.9765L220.401 82.7834C220.852 83.044 221.094 83.6699 220.941 84.181C220.788 84.6921 220.299 84.8952 219.848 84.6355Z" fill="white"/>
<path d="M231.427 91.3207L224.259 87.1819C223.808 86.9214 223.567 86.2954 223.719 85.7843C223.872 85.2724 224.361 85.0693 224.812 85.3298L231.98 89.4677C232.431 89.7283 232.673 90.3542 232.52 90.8653C232.368 91.3773 231.878 91.5812 231.427 91.3207Z" fill="white"/>
<path d="M210.044 106.277L205.183 103.471C204.732 103.21 204.49 102.584 204.643 102.073C204.795 101.561 205.285 101.358 205.736 101.618L210.597 104.424C211.048 104.685 211.29 105.311 211.137 105.822C210.985 106.334 210.495 106.538 210.044 106.277Z" fill="white"/>
<path d="M220.366 112.238L213.198 108.1C212.747 107.839 212.506 107.213 212.658 106.702C212.81 106.19 213.3 105.987 213.751 106.248L220.919 110.386C221.37 110.647 221.612 111.273 221.459 111.784C221.307 112.294 220.817 112.497 220.366 112.238Z" fill="white"/>
<path d="M205.286 80.7783L202.25 79.0252C201.799 78.7647 201.557 78.1387 201.709 77.6276C201.862 77.1156 202.351 76.9125 202.802 77.1731L205.839 78.9261C206.29 79.1867 206.532 79.8127 206.379 80.3238C206.227 80.8349 205.737 81.0388 205.286 80.7783Z" fill="white"/>
<path d="M214.424 90.6039L205.146 85.2474C204.695 84.9868 204.453 84.3608 204.605 83.8497C204.758 83.3378 205.247 83.1347 205.698 83.3952L214.976 88.7518C215.428 89.0123 215.669 89.6383 215.517 90.1494C215.364 90.6613 214.875 90.8645 214.424 90.6039Z" fill="white"/>
<path d="M205.867 94.7643L202.83 93.0113C202.379 92.7507 202.137 92.1248 202.29 91.6137C202.442 91.1017 202.931 90.8986 203.383 91.1592L206.419 92.9122C206.87 93.1728 207.112 93.7987 206.959 94.3098C206.806 94.8209 206.317 95.0249 205.867 94.7643Z" fill="white"/>
<path d="M221.486 121.984L213.375 117.301C212.924 117.041 212.682 116.415 212.835 115.903C212.987 115.392 213.476 115.188 213.928 115.449L222.039 120.132C222.49 120.393 222.731 121.019 222.579 121.53C222.426 122.041 221.937 122.245 221.486 121.984Z" fill="white"/>
<path d="M202.463 101.901L200.513 100.775C200.062 100.515 199.821 99.8887 199.973 99.3776C200.125 98.8656 200.615 98.6625 201.066 98.9231L203.015 100.049C203.467 100.309 203.708 100.935 203.556 101.446C203.403 101.957 202.914 102.16 202.463 101.901Z" fill="white"/>
<path d="M200.618 109.936L198.198 108.538C197.746 108.278 197.505 107.652 197.657 107.141C197.81 106.629 198.299 106.425 198.75 106.686L201.171 108.084C201.622 108.344 201.863 108.97 201.711 109.481C201.559 109.992 201.069 110.196 200.618 109.936Z" fill="white"/>
<path d="M210.035 115.373L203.653 111.689C203.202 111.428 202.961 110.802 203.113 110.291C203.265 109.779 203.755 109.576 204.206 109.837L210.588 113.521C211.039 113.782 211.28 114.408 211.128 114.919C210.976 115.43 210.486 115.634 210.035 115.373Z" fill="white"/>
<path d="M201.628 115.069L197.04 112.42C196.588 112.159 196.347 111.533 196.499 111.022C196.652 110.51 197.141 110.307 197.592 110.568L202.181 113.217C202.633 113.478 202.874 114.104 202.722 114.615C202.568 115.126 202.079 115.33 201.628 115.069Z" fill="white"/>
<path d="M228.444 126.021L225.497 124.32C225.046 124.059 224.805 123.433 224.957 122.922C225.109 122.41 225.599 122.207 226.05 122.468L228.997 124.169C229.448 124.43 229.689 125.056 229.537 125.567C229.385 126.078 228.895 126.281 228.444 126.021Z" fill="white"/>
<path d="M217.162 101.286L209.051 96.6031C208.6 96.3425 208.359 95.7166 208.511 95.2055C208.663 94.6935 209.153 94.4904 209.604 94.751L217.715 99.4341C218.166 99.6946 218.408 100.321 218.255 100.832C218.103 101.343 217.613 101.547 217.162 101.286Z" fill="white"/>
<path d="M218.124 97.2907L203.988 89.129C203.537 88.8684 203.295 88.2424 203.448 87.7313C203.6 87.2194 204.089 87.0163 204.541 87.2768L218.676 95.4386C219.128 95.6992 219.369 96.3251 219.217 96.8362C219.064 97.3473 218.575 97.5513 218.124 97.2907Z" fill="#E8975B"/>
<path d="M209.782 101.576L201.671 96.8929C201.22 96.6323 200.979 96.0064 201.131 95.4953C201.283 94.9833 201.773 94.7802 202.224 95.0408L210.335 99.7239C210.786 99.9844 211.027 100.61 210.875 101.122C210.723 101.633 210.233 101.837 209.782 101.576Z" fill="#E8975B"/>
<path d="M223.314 104.838L220.367 103.137C219.916 102.876 219.675 102.25 219.827 101.739C219.979 101.227 220.469 101.024 220.92 101.285L223.867 102.986C224.318 103.247 224.559 103.873 224.407 104.384C224.254 104.895 223.765 105.099 223.314 104.838Z" fill="#E8975B"/>
<path d="M253.29 103.943L235.838 93.868C235.387 93.6074 235.146 92.9814 235.298 92.4703C235.45 91.9584 235.94 91.7553 236.391 92.0159L253.842 102.091C254.294 102.352 254.535 102.978 254.383 103.489C254.23 104 253.741 104.203 253.29 103.943Z" fill="#E8975B"/>
<path d="M209.105 110.286L199.355 104.657C198.904 104.396 198.663 103.77 198.815 103.259C198.967 102.747 199.457 102.544 199.908 102.804L209.658 108.433C210.109 108.693 210.351 109.319 210.198 109.83C210.046 110.342 209.557 110.546 209.105 110.286Z" fill="#F8359E"/>
<path d="M210.575 79.2816L203.408 75.1429C202.956 74.8823 202.715 74.2563 202.867 73.7452C203.02 73.2333 203.509 73.0302 203.96 73.2908L211.128 77.4295C211.579 77.69 211.821 78.316 211.668 78.8271C211.516 79.3382 211.027 79.5422 210.575 79.2816Z" fill="#F8359E"/>
<path d="M200.129 118.755L191.827 113.962C191.376 113.701 191.135 113.075 191.287 112.564C191.439 112.052 191.929 111.849 192.38 112.109L200.681 116.902C201.133 117.162 201.374 117.788 201.222 118.299C201.069 118.811 200.58 119.015 200.129 118.755Z" fill="#E8975B"/>
<path d="M255.249 94.9684L251.696 92.9165C251.367 92.7258 251.19 92.2688 251.302 91.8951C251.413 91.5213 251.771 91.3723 252.101 91.563L255.654 93.614C255.983 93.8046 256.16 94.2616 256.048 94.6362C255.936 95.0091 255.579 95.1581 255.249 94.9684Z" fill="white"/>
<path d="M262.027 98.8814L258.473 96.8295C258.143 96.6389 257.967 96.1819 258.078 95.8082C258.19 95.4344 258.548 95.2854 258.878 95.476L262.43 97.5271C262.76 97.7177 262.936 98.1747 262.825 98.5485C262.714 98.9222 262.356 99.0712 262.027 98.8814Z" fill="white"/>
<path d="M268.804 102.794L265.251 100.743C264.922 100.552 264.745 100.095 264.857 99.7215C264.968 99.3477 265.326 99.1988 265.656 99.3894L269.209 101.44C269.538 101.631 269.716 102.088 269.604 102.462C269.492 102.836 269.134 102.985 268.804 102.794Z" fill="white"/>
<path d="M272.135 104.72L272.029 104.656C271.699 104.465 271.523 104.008 271.634 103.635C271.746 103.261 272.104 103.112 272.433 103.302L272.54 103.367C272.87 103.557 273.046 104.014 272.935 104.388C272.823 104.762 272.465 104.911 272.135 104.72Z" fill="#F8359E"/>
<path d="M88.7448 146.302C86.4965 146.302 84.2473 145.724 82.2421 144.565L58.4393 130.822C57.4071 130.226 56.7911 129.16 56.7911 127.968C56.7911 126.776 57.4071 125.709 58.4393 125.113L82.2412 111.371C86.2518 109.055 91.2379 109.054 95.2485 111.371L119.051 125.114C120.083 125.71 120.699 126.776 120.699 127.968C120.699 129.16 120.083 130.227 119.051 130.823L95.2493 144.565C93.244 145.724 90.994 146.302 88.7448 146.302ZM83.0162 143.224C86.5506 145.263 90.9407 145.263 94.476 143.224L118.278 129.482C118.824 129.165 119.151 128.6 119.151 127.969C119.151 127.338 118.824 126.772 118.278 126.457L94.4752 112.714C90.9391 110.673 86.5489 110.674 83.0154 112.714L59.2135 126.456C58.6674 126.772 58.3402 127.337 58.3402 127.968C58.3402 128.6 58.6674 129.165 59.2135 129.481L83.0162 143.224Z" fill="#5AA7FF"/>
<path opacity="0.6" d="M100.185 134.967C93.8008 138.653 83.449 138.653 77.0644 134.967C70.6798 131.282 70.6798 125.305 77.0644 121.619C83.449 117.933 93.8008 117.933 100.185 121.619C106.57 125.305 106.57 131.281 100.185 134.967Z" fill="#252B39"/>
<path d="M112.86 61.0176H66.293L70.6241 111.436C70.6241 114.236 72.4745 117.036 76.1754 119.173C83.5772 123.447 95.5772 123.447 102.978 119.173C106.679 117.036 108.529 114.236 108.529 111.436L112.86 61.0176Z" fill="#5AA7FF"/>
<path d="M77.4141 97.8347L81.9455 92.5542C82.2331 92.2189 82.7827 92.4224 82.7827 92.8642V94.1071C82.7827 94.4457 82.6614 94.7732 82.441 95.0302L80.0343 97.8347L82.4408 100.639C82.6614 100.896 82.7827 101.224 82.7827 101.562V102.805C82.7827 103.247 82.2331 103.45 81.9455 103.115L77.4141 97.8347Z" fill="white"/>
<path d="M77.4141 97.8347L81.9455 103.115C82.2331 103.45 82.7827 103.247 82.7827 102.805V101.562C82.7827 101.223 82.6614 100.896 82.4408 100.639L80.0343 97.8345H77.4141V97.8347Z" fill="white"/>
<path d="M97.5808 97.8347L93.0494 92.5542C92.7617 92.2189 92.2122 92.4224 92.2122 92.8642V94.1071C92.2122 94.4457 92.3335 94.7732 92.5539 95.0302L94.9606 97.8347L92.5541 100.639C92.3335 100.896 92.2122 101.224 92.2122 101.562V102.805C92.2122 103.247 92.7617 103.45 93.0494 103.115L97.5808 97.8347Z" fill="white"/>
<path d="M97.5808 97.8347L93.0494 103.115C92.7617 103.45 92.2122 103.247 92.2122 102.805V101.562C92.2122 101.223 92.3335 100.896 92.5541 100.639L94.9606 97.8345H97.5808V97.8347Z" fill="white"/>
<path d="M87.8304 92.63L84.0964 102.712C84.0072 102.953 84.1882 103.209 84.4485 103.209H85.7912C85.9486 103.209 86.0893 103.112 86.1433 102.966L89.8772 92.8836C89.9664 92.6424 89.7854 92.3872 89.5251 92.3872H88.1826C88.025 92.3872 87.8845 92.4842 87.8304 92.63Z" fill="white"/>
<path opacity="0.4" d="M112.86 61.0176H66.293L67.0056 69.3125C68.0727 70.681 69.5086 71.9929 71.3216 73.1949C80.2201 79.0975 94.9021 80.2354 104.921 75.9843L103.372 112.86C103.304 114.467 102.749 116.031 101.708 117.257C100.2 119.032 97.2936 121.121 91.7073 122.302C95.8253 122.035 99.8217 120.997 102.979 119.174C106.68 117.037 108.53 114.237 108.53 111.437L112.003 71.0023L112.86 61.0176Z" fill="#06033E"/>
<path opacity="0.4" d="M89.5764 74.4604C102.435 74.4604 112.86 68.4419 112.86 61.0178C112.86 53.5936 102.435 47.5752 89.5764 47.5752C76.7173 47.5752 66.293 53.5936 66.293 61.0178C66.293 68.4419 76.7173 74.4604 89.5764 74.4604Z" fill="#06033E"/>
<path opacity="0.4" d="M89.5764 67.8586C100.652 67.8586 109.631 62.6745 109.631 56.2797C109.631 49.8849 100.652 44.7009 89.5764 44.7009C78.5006 44.7009 69.522 49.8849 69.522 56.2797C69.522 62.6745 78.5006 67.8586 89.5764 67.8586Z" fill="#06033E"/>
<path d="M114.239 60.3841L114.241 60.3875L114.237 60.3467C114.236 60.3234 114.232 60.3009 114.231 60.2776L113.784 55.7634L113.765 55.8142C113.565 52.3972 111.212 49.0143 106.694 46.4063C97.2404 40.9482 81.9132 40.9482 72.4603 46.4063C67.8288 49.0809 65.4723 52.5687 65.3799 56.0731L65.374 56.0614L64.9479 60.0812C64.9362 60.186 64.9221 60.2901 64.9146 60.395L64.9079 60.4607L64.9121 60.4574C64.6565 64.2873 67.0564 68.1647 72.1207 71.0881C81.7617 76.6544 97.3935 76.6544 107.035 71.0881C112.13 68.1464 114.529 64.2382 114.239 60.3841Z" fill="#5498E6"/>
<path d="M89.5764 67.8586C100.652 67.8586 109.631 62.6745 109.631 56.2797C109.631 49.8849 100.652 44.7009 89.5764 44.7009C78.5006 44.7009 69.522 49.8849 69.522 56.2797C69.522 62.6745 78.5006 67.8586 89.5764 67.8586Z" fill="#4A494F"/>
<path d="M88.6249 67.8586C99.7007 67.8586 108.679 62.6745 108.679 56.2797C108.679 49.8849 99.7007 44.7009 88.6249 44.7009C77.5492 44.7009 68.5705 49.8849 68.5705 56.2797C68.5705 62.6745 77.5492 67.8586 88.6249 67.8586Z" fill="url(#paint2_linear_4_356)"/>
<path opacity="0.4" d="M77.7744 49.8169C85.6057 45.2953 98.3041 45.2953 106.135 49.8169C106.235 49.8744 106.319 49.9376 106.416 49.9959C105.66 49.3225 104.779 48.6823 103.756 48.0922C95.9243 43.5705 83.2267 43.5705 75.3954 48.0922C67.6631 52.5564 67.5799 59.7534 75.1149 64.2875C70.0838 59.8017 70.9653 53.7484 77.7744 49.8169Z" fill="#06033E"/>
<path d="M75.3954 50.1016C83.2276 45.58 95.9252 45.58 103.757 50.1016C107.23 52.1069 109.16 54.664 109.553 57.2845C110.045 53.9956 108.116 50.6085 103.757 48.0922C95.9252 43.5705 83.2276 43.5705 75.3954 48.0922C71.0369 50.6085 69.1074 53.9956 69.6002 57.2836C69.9931 54.664 71.9226 52.1069 75.3954 50.1016Z" fill="#4F4E75"/>
<path d="M106.843 46.5123C97.4027 40.9509 82.0198 40.8153 72.4837 46.2101C62.9476 51.6041 62.8702 60.4859 72.3097 66.0473C81.7492 71.6086 97.1322 71.7443 106.669 66.3503C116.205 60.9554 116.283 52.0736 106.843 46.5123ZM103.757 64.4673C101.141 65.9782 97.9779 66.9721 94.6383 67.4732L94.2745 66.277C94.1272 65.7942 93.6818 65.4637 93.1774 65.4637H85.9762C85.4718 65.4637 85.0256 65.7942 84.8791 66.277L84.5153 67.4732C81.1757 66.9721 78.0134 65.9782 75.3971 64.4673C67.565 59.9457 67.565 52.6147 75.3963 48.093C83.2276 43.5714 95.926 43.5714 103.757 48.093C111.589 52.6147 111.589 59.9457 103.757 64.4673Z" fill="#DEDEDE"/>
<path d="M103.756 47.2355C95.9243 42.7138 83.2267 42.7138 75.3954 47.2355C71.2908 49.6053 69.3413 52.7469 69.5394 55.8509C69.7192 53.0324 71.6687 50.2446 75.3954 48.0929C83.2267 43.5712 95.9251 43.5712 103.756 48.0929C107.483 50.2446 109.433 53.0324 109.612 55.8517C109.811 52.7469 107.862 49.6053 103.756 47.2355Z" fill="white"/>
<path d="M106.668 65.4918C97.1321 70.8858 81.7492 70.751 72.3088 65.1888C67.8171 62.5426 65.4847 59.1438 65.2966 55.7268C65.111 59.4269 67.4409 63.1777 72.3088 66.0462C81.7492 71.6075 97.1321 71.7432 106.668 66.3492C111.666 63.5223 114.062 59.7365 113.854 55.9732C113.68 59.4493 111.287 62.8797 106.668 65.4918Z" fill="white"/>
<path d="M91.7281 68.0958H87.4238C87.1233 68.0958 86.8802 67.8519 86.8802 67.5523V67.4765C86.8802 67.176 87.1233 66.9321 87.4238 66.9321H91.7281C92.0286 66.9321 92.2717 67.176 92.2717 67.4765V67.5523C92.2725 67.8519 92.0286 68.0958 91.7281 68.0958Z" fill="#0C0A78"/>
<path d="M91.7281 66.9321H87.4238C87.1233 66.9321 86.8802 67.176 86.8802 67.4765V67.5523C86.8802 67.6039 86.896 67.6497 86.9093 67.6971C86.9734 67.469 87.1749 67.2984 87.4238 67.2984H91.7281C91.977 67.2984 92.1785 67.469 92.2426 67.6971C92.2559 67.6497 92.2717 67.6039 92.2717 67.5523V67.4765C92.2725 67.1752 92.0286 66.9321 91.7281 66.9321Z" fill="url(#paint3_linear_4_356)"/>
<path opacity="0.5" d="M91.1014 67.5137C91.1014 67.5137 104.12 63.1511 98.8486 48.1919C93.577 33.2326 83.3142 28.6735 87.4488 16.7068C87.4488 16.7068 80.9693 26.3944 87.0242 39.5015C93.0792 52.6086 94.4069 51.1028 94.3361 57.3717C94.2512 64.8192 88.2354 67.5146 88.2354 67.5146L91.1014 67.5137Z" fill="white"/>
<path opacity="0.5" d="M92.2726 18.7879C92.2726 18.7879 90.9174 9.83952 99.3106 0.822021C99.3106 0.822021 91.888 17.4011 94.3161 25.5862C94.3161 25.5862 92.3525 20.3828 92.2726 18.7879Z" fill="white"/>
<defs>
<linearGradient id="paint0_linear_4_356" x1="175.197" y1="119.702" x2="175.197" y2="239.26" gradientUnits="userSpaceOnUse">
<stop stop-color="#393939"/>
<stop offset="1" stop-color="#9F9F9F"/>
</linearGradient>
<linearGradient id="paint1_linear_4_356" x1="158.358" y1="107.59" x2="307.331" y2="107.59" gradientUnits="userSpaceOnUse">
<stop stop-color="#3919BB"/>
<stop offset="1" stop-color="#6507FA"/>
</linearGradient>
<linearGradient id="paint2_linear_4_356" x1="88.6249" y1="44.7009" x2="88.6249" y2="67.8586" gradientUnits="userSpaceOnUse">
<stop stop-color="#5AA7FF"/>
<stop offset="1" stop-color="#366499"/>
</linearGradient>
<linearGradient id="paint3_linear_4_356" x1="86.4021" y1="67.3143" x2="93.3982" y2="67.3143" gradientUnits="userSpaceOnUse">
<stop stop-color="#131060"/>
<stop offset="0.1857" stop-color="#141062"/>
<stop offset="0.2823" stop-color="#19106A"/>
<stop offset="0.3584" stop-color="#221078"/>
<stop offset="0.4238" stop-color="#2E0F8B"/>
<stop offset="0.4823" stop-color="#3E0FA3"/>
<stop offset="0.5359" stop-color="#510EC2"/>
<stop offset="0.5847" stop-color="#680DE5"/>
<stop offset="0.6071" stop-color="#740DF8"/>
<stop offset="0.6179" stop-color="#7A14F0"/>
<stop offset="0.6826" stop-color="#9B3CC3"/>
<stop offset="0.7477" stop-color="#B75D9D"/>
<stop offset="0.8123" stop-color="#CC7680"/>
<stop offset="0.8762" stop-color="#DC886C"/>
<stop offset="0.9391" stop-color="#E5935F"/>
<stop offset="1" stop-color="#E8975B"/>
</linearGradient>
</defs>
</svg>
