<svg width="26" height="56" viewBox="0 0 26 56" fill="none" xmlns="http://www.w3.org/2000/svg">
<g clip-path="url(#clip0_22_844)">
<path d="M17.8366 6.23322C15.4997 3.44842 13.4872 0.619958 13.0761 0.0326208C13.0663 0.022313 13.0546 0.0141064 13.0415 0.00849895C13.0285 0.00289146 13.0145 0 13.0003 0C12.9862 0 12.9721 0.00289146 12.9591 0.00849895C12.9461 0.0141064 12.9343 0.022313 12.9246 0.0326208C12.5134 0.62006 10.501 3.44842 8.16391 6.23322C-11.8954 31.9275 11.3233 49.2675 11.3233 49.2675L11.518 49.3981C11.6911 52.0741 12.1239 55.9251 12.1239 55.9251H13.8551C13.8551 55.9251 14.2877 52.0959 14.4609 49.3982L14.6557 49.2458C14.6773 49.2676 37.896 31.9276 17.8366 6.23322ZM12.9895 48.8758C12.9895 48.8758 11.9508 47.9839 11.6694 47.5271V47.4835L12.9246 19.5047C12.9246 19.4177 13.0545 19.4177 13.0545 19.5047L14.3095 47.4835V47.5271C14.0281 47.9839 12.9895 48.8759 12.9895 48.8759" fill="#01EC64"/>
</g>
<defs>
<clipPath id="clip0_22_844">
<rect width="26" height="56" fill="white"/>
</clipPath>
</defs>
</svg>
