<svg width="50" height="50" viewBox="0 0 50 50" fill="none" xmlns="http://www.w3.org/2000/svg">
<g clip-path="url(#clip0_22_860)">
<path d="M29.423 0.156152C29.0723 0.156152 28.7215 0.233887 28.4098 0.350684C29.0723 0.77959 29.423 1.36396 29.618 2.02646C29.618 2.10459 29.657 2.18271 29.657 2.26045C29.657 2.33857 29.6961 2.41631 29.6961 2.49404C29.7352 3.62451 29.384 3.78037 29.1504 4.44287C28.7605 5.2999 28.8777 6.23545 29.3453 6.97568C29.3844 7.05381 29.4234 7.171 29.5012 7.24873C28.9945 3.97529 31.7223 3.50732 32.2289 2.49404C32.268 1.59795 31.5277 1.01357 30.943 0.584668C30.3586 0.233887 29.8906 0.155762 29.4234 0.155762L29.423 0.156152ZM33.5156 0.856934C33.4766 1.16865 33.5156 1.09092 33.4766 1.24678C33.4766 1.36357 33.4766 1.48037 33.4375 1.59756C33.3984 1.71436 33.3984 1.79248 33.3594 1.90928C33.3203 2.02607 33.2816 2.1042 33.2426 2.221C33.2035 2.29912 33.1645 2.37686 33.1254 2.49365C33.0867 2.53271 33.0477 2.61084 33.009 2.6499C32.9699 2.68896 32.9699 2.72764 32.9309 2.7667C32.8527 2.84482 32.8137 2.96123 32.7359 3.03936L32.5023 3.27334C32.4242 3.35146 32.3461 3.4292 32.2684 3.46787C31.9957 3.66318 31.684 3.81865 31.4109 4.01357C31.3328 4.0917 31.216 4.13076 31.1383 4.2085C31.0602 4.28662 30.982 4.32568 30.9043 4.40342L30.6707 4.63701C30.5926 4.71514 30.5145 4.79326 30.4754 4.91006C30.3977 4.98818 30.3586 5.10498 30.2809 5.18271C30.2418 5.2999 30.2027 5.37764 30.125 5.49443C30.0859 5.61162 30.0469 5.68975 30.0078 5.80615C29.9688 5.92334 29.9301 6.04014 29.9301 6.11787C29.9301 6.15693 29.9301 6.23506 29.891 6.27412C29.891 6.31318 29.891 6.39092 29.852 6.42998V6.97529C29.852 7.09248 29.852 7.17061 29.891 7.28701C29.891 7.4042 29.9301 7.48232 29.9691 7.59912C30.0082 7.71592 30.0473 7.79365 30.0863 7.91084C30.125 7.98897 30.1641 8.02764 30.1641 8.10576L27.202 6.97529C26.7134 6.82727 26.2196 6.69736 25.7215 6.58584C25.4484 6.50772 25.1758 6.46865 24.9027 6.39053C24.1295 6.23573 23.3491 6.11879 22.5645 6.04014H22.4863C21.707 5.96201 20.9668 5.92295 20.1875 5.92295C19.6027 5.92295 19.057 5.96201 18.5117 6.00107C17.732 6.04014 16.9531 6.15732 16.1734 6.27412L15.5887 6.39092C15.1992 6.46904 14.8094 6.54678 14.4195 6.66357C14.2246 6.70264 14.0301 6.78076 13.8352 6.81982C13.6402 6.89756 13.4453 6.97529 13.2895 7.05342C13.1336 7.13154 13.0168 7.17061 12.8609 7.24834C12.8219 7.24834 12.8219 7.24834 12.7828 7.2874C12.6656 7.36514 12.5492 7.4042 12.432 7.48193C12.393 7.48193 12.3539 7.521 12.3539 7.521C12.1984 7.59912 12.0813 7.67725 11.9645 7.71592C11.8863 7.75498 11.7695 7.79404 11.6918 7.83311C11.6527 7.87178 11.6137 7.87178 11.5746 7.91084C11.4578 7.98897 11.341 8.02764 11.2238 8.10537C11.107 8.1835 10.9902 8.22256 10.9121 8.30068C10.834 8.37842 10.7172 8.41748 10.6395 8.49521C10.6395 8.49521 10.6004 8.49521 10.6004 8.53428C10.5223 8.57334 10.4445 8.65146 10.3668 8.7292L10.3277 8.76826C10.2496 8.80732 10.2105 8.88506 10.1328 8.92412C10.0938 8.92412 10.0938 8.96318 10.0547 8.96318C9.97695 9.00225 9.93789 9.07998 9.86016 9.11865C9.86016 9.15771 9.82109 9.15771 9.82109 9.15771L9.58711 9.3917L9.54805 9.43076L9.31445 9.66436C9.31445 9.66436 9.31445 9.70342 9.27539 9.70342L9.08047 9.89834C9.04141 9.9374 9.00234 9.9374 9.00234 9.97647L8.76875 10.2101C8.76875 10.2491 8.72969 10.2491 8.72969 10.2882L8.41797 10.5995L8.37891 10.6386C8.18438 10.8726 7.95039 11.0675 7.7168 11.2624C7.4832 11.4573 7.24883 11.6519 6.97617 11.8468C6.70352 12.0417 6.46953 12.1976 6.19688 12.3534C5.92422 12.5093 5.65117 12.6261 5.37852 12.7433C5.10547 12.8601 4.83281 12.9769 4.56016 13.055C4.01445 13.1722 3.46875 13.4058 3.00117 13.4444C3.00117 13.2499 2.88398 13.2886 2.76719 13.2886C2.65039 13.3276 2.53359 13.3276 2.45547 13.3667C2.33828 13.4058 2.26055 13.4448 2.14375 13.4839C2.03268 13.5199 1.92761 13.5723 1.83203 13.6394C1.75391 13.7175 1.63711 13.7565 1.55938 13.8347C1.48125 13.9124 1.36406 13.9901 1.28633 14.0683C1.2082 14.1464 1.09141 14.2241 1.01367 14.3019C0.935547 14.38 0.857422 14.4581 0.779688 14.5749C0.701563 14.6917 0.623828 14.7694 0.584766 14.8866C0.507031 14.9647 0.467969 15.0815 0.390234 15.1983C0.351172 15.3155 0.273047 15.4319 0.233984 15.5491L0.117188 15.8999C0.078125 16.0167 0.078125 16.0944 0.0390625 16.2116V16.2507C0 16.3679 0 16.5233 0 16.6015C0.0390625 16.5624 0.0390625 16.6405 0.0390625 16.7183V16.8741C0.0390625 16.9522 0.078125 17.03 0.078125 17.1077C0.117188 17.1858 0.117188 17.264 0.15625 17.3417C0.194922 17.4198 0.233984 17.4976 0.311719 17.5757C0.350781 17.6538 0.428906 17.7315 0.467969 17.8093C0.545703 17.8874 0.623438 17.9655 0.701563 18.0042C0.779688 18.0823 0.857422 18.1604 0.935156 18.1991C1.24688 18.4718 1.325 18.5499 1.71484 18.7835C1.79297 18.8226 1.83164 18.8616 1.90977 18.9007H1.94883V18.9788C1.94883 19.0952 1.98789 19.1733 2.02656 19.2901C2.06563 19.4073 2.10469 19.5241 2.14375 19.6019L2.26016 19.8358C2.26016 19.8749 2.29922 19.8749 2.29922 19.914C2.33828 20.0308 2.41641 20.1085 2.45547 20.1866C2.5332 20.2647 2.57227 20.3815 2.65 20.4593L2.88398 20.6933L3.11758 20.9269H3.15664C3.23477 21.005 3.3125 21.044 3.39062 21.1222C3.46875 21.2003 3.58555 21.239 3.66328 21.2776C3.74141 21.3167 3.8582 21.3948 3.975 21.4339C4.05312 21.4729 4.13125 21.5116 4.24766 21.5116C4.24766 21.5116 4.28672 21.5116 4.28672 21.5507C4.32578 21.5507 4.40391 21.5897 4.44297 21.5897C4.40391 22.2909 4.40391 22.9534 4.48203 23.1874C4.59844 23.4601 5.1832 22.6417 5.72891 21.7456C5.65078 22.6417 5.61172 23.694 5.72891 24.0058C5.88477 24.3175 6.625 23.3042 7.32656 22.2128C16.4457 20.1085 24.7855 26.4218 25.682 35.3464C25.5258 33.9433 23.8109 33.164 22.993 33.3589C22.6031 34.294 21.9406 35.5413 20.8887 36.2815C20.9668 35.424 20.9277 34.5667 20.7715 33.7097C20.4988 34.8788 19.9531 36.0089 19.1738 36.944C17.9656 37.0222 16.7188 36.4374 16.0949 35.5413C16.0559 35.5022 16.0168 35.4241 15.9781 35.3851C15.9391 35.3073 15.9 35.1905 15.8609 35.1124C15.8219 35.0343 15.7832 34.9175 15.7832 34.8397V34.3722C15.7832 34.294 15.8223 34.1769 15.8613 34.0991C15.9004 34.0214 15.9004 33.9042 15.9395 33.8265C15.9781 33.7483 16.0172 33.6315 16.0949 33.5538C16.3289 32.93 16.3289 32.4233 15.9 32.1507L15.6664 32.0335C15.6273 32.0335 15.5492 31.9948 15.5102 31.9948C15.4711 31.9948 15.4324 31.9558 15.3934 31.9558C15.3156 31.9167 15.1988 31.9167 15.1207 31.8776C15.0426 31.8386 14.9258 31.8386 14.848 31.8386C14.7699 31.8386 14.6527 31.7999 14.575 31.7999H14.3805C14.2633 31.7999 14.1852 31.7999 14.1074 31.839C14.0293 31.839 13.9125 31.878 13.8348 31.878C13.7566 31.9171 13.6398 31.9171 13.5617 31.9562C13.484 31.9948 13.4059 32.0339 13.2891 32.0726L13.0551 32.1897C10.0543 34.1382 11.8473 38.7366 13.8738 40.0616C13.0941 40.2179 12.3148 40.3733 12.0809 40.5296L12.0418 40.5687C12.5875 40.919 13.1723 41.1921 13.7957 41.4257C14.6141 41.6987 15.5105 41.9323 15.9 42.0495C16.9523 42.2831 18.0438 42.3612 19.1348 42.2831C24.8246 41.8933 29.5012 37.5288 30.3582 31.839C30.3973 31.9562 30.3973 32.0726 30.4363 32.1897C30.4754 32.4233 30.5145 32.6573 30.5535 32.93C30.5926 33.0472 30.5926 33.164 30.5926 33.2808V33.3198C30.5926 33.437 30.6313 33.5538 30.6313 33.6706C30.6313 33.8265 30.6703 33.9433 30.6703 34.0991V35.7358C30.6703 35.853 30.6313 35.9311 30.6313 36.0479V36.1647C30.6313 36.2819 30.5922 36.3987 30.5922 36.5546C30.5531 36.6714 30.5531 36.7882 30.5141 36.9054V36.9444C30.475 37.0612 30.475 37.178 30.4363 37.2948V37.3339C30.3973 37.4511 30.3973 37.5679 30.3582 37.6847V37.7237L30.2414 38.0745V38.1136C30.2023 38.2304 30.1633 38.3862 30.1246 38.503C30.0855 38.6202 30.0465 38.737 29.9684 38.8929C29.9297 39.0097 29.8906 39.1655 29.8129 39.2823C29.7738 39.3995 29.6957 39.5163 29.6566 39.6722C29.618 39.7894 29.5398 39.9062 29.5012 40.0229C29.5012 40.062 29.4621 40.1011 29.4621 40.1011C29.4621 40.1011 29.4621 40.1401 29.423 40.1401C28.6047 41.8155 27.3578 43.2964 25.7988 44.4655C25.6816 44.5437 25.6039 44.6218 25.4871 44.6995C25.448 44.7386 25.409 44.7386 25.409 44.7776C25.3309 44.8554 25.2141 44.8944 25.1363 44.9722L25.1754 45.0503C25.3699 45.0112 25.5262 45.0112 25.7207 44.9722C26.0715 44.9331 26.3832 44.855 26.734 44.7772C26.8121 44.7772 26.9293 44.7382 27.007 44.6991C27.0852 44.6991 27.1238 44.6601 27.2016 44.6601C27.2793 44.6601 27.3969 44.6214 27.4746 44.6214C27.5527 44.5823 27.6305 44.5823 27.7082 44.5433C28.9945 44.2319 30.2414 43.803 31.4496 43.2964C29.384 46.1022 26.6562 48.3628 23.4605 49.8433C24.9414 49.7265 26.4223 49.4929 27.8641 49.064C33.0415 47.5436 37.4105 44.0429 40.023 39.3214C39.4777 42.2831 38.3082 45.128 36.5547 47.6222C37.802 46.8038 38.932 45.8292 39.9844 44.7772C42.868 41.7765 44.7773 37.9183 45.4012 33.8265C45.8301 35.853 45.9859 37.9573 45.791 40.0229C55.1051 27.0456 46.5703 13.6007 42.9852 10.0542C42.9852 10.0151 42.9461 10.0151 42.9461 9.97607C42.9461 10.1323 42.9461 10.2878 42.907 10.444C42.868 10.7558 42.8289 11.0284 42.7898 11.3011C42.7121 11.5741 42.6344 11.8858 42.5563 12.1585C42.4781 12.4315 42.3613 12.7042 42.2445 12.9769C42.1277 13.2495 42.0105 13.5226 41.8547 13.7565C41.6988 13.9905 41.543 14.2632 41.3871 14.4968C41.2312 14.7304 41.0363 14.9644 40.8414 15.1983C40.6469 15.4323 40.452 15.6269 40.218 15.8608C40.1008 15.978 39.9844 16.0948 39.8285 16.1726C39.7113 16.2507 39.6332 16.3288 39.5164 16.4452C39.2828 16.6405 39.0488 16.796 38.7762 16.9519C38.5422 17.1081 38.2695 17.264 37.9969 17.3808L37.1781 17.7315C36.9055 17.8483 36.6328 17.9265 36.3598 18.0042C36.0871 18.0823 35.7754 18.1604 35.5023 18.1991C35.1906 18.2382 34.918 18.2772 34.6453 18.3163C34.45 18.3163 34.2164 18.355 34.0215 18.355C33.7098 18.355 33.4371 18.3159 33.1645 18.3159C32.8523 18.2769 32.5797 18.2378 32.307 18.1987C32.0115 18.1626 31.7227 18.084 31.4496 17.9651C31.7223 17.9261 32.034 17.9261 32.307 17.8483C32.6188 17.8093 32.8914 17.7312 33.1645 17.6534C33.4371 17.5753 33.7488 17.4976 33.9828 17.3808L34.8012 17.03C35.0738 16.9128 35.3078 16.7573 35.5805 16.6015C35.8145 16.4452 36.0871 16.2507 36.3211 16.0948C36.5547 15.8995 36.7887 15.705 36.9836 15.5101C37.2172 15.3151 37.4121 15.0815 37.607 14.8866C37.802 14.6526 37.9969 14.419 38.1527 14.1851C38.1918 14.146 38.1918 14.1069 38.2309 14.0679C38.3473 13.8733 38.5031 13.6394 38.6203 13.4448C38.7653 13.1928 38.8953 12.9324 39.0098 12.6651C39.127 12.3925 39.2441 12.1194 39.3219 11.8468L39.5555 11.0284C39.5945 10.7167 39.6727 10.444 39.6727 10.171C39.7117 9.85928 39.7117 9.58662 39.7117 9.31357C39.7117 9.11904 39.7117 8.88506 39.6727 8.69014C39.6336 8.37842 39.5945 8.10576 39.5555 7.83272C39.5164 7.521 39.4383 7.24834 39.3605 6.97529C39.2824 6.70264 39.1656 6.42998 39.0879 6.15693C38.9707 5.88428 38.8539 5.61162 38.7371 5.37764C38.5812 5.10498 38.4645 4.871 38.3086 4.59834C38.1523 4.36436 37.9578 4.13037 37.802 3.89678C37.607 3.66279 37.4121 3.46787 37.2172 3.23428C37.1004 3.11709 36.9836 3.00029 36.8664 2.92256C36.282 2.45498 35.6973 2.06514 35.0738 1.67529C34.9957 1.63623 34.918 1.59717 34.8012 1.55811C34.2945 1.12998 33.9051 1.01279 33.5156 0.856934Z" fill="#DF234F"/>
</g>
<defs>
<clipPath id="clip0_22_860">
<rect width="50" height="50" fill="white"/>
</clipPath>
</defs>
</svg>
