<svg width="50" height="51" viewBox="0 0 50 51" fill="none" xmlns="http://www.w3.org/2000/svg">
<path d="M23.3627 0.513455C23.2551 0.523229 22.913 0.557437 22.6051 0.581871C15.5034 1.22205 8.85142 5.05336 4.63832 10.942C2.29228 14.2162 0.791789 17.9303 0.224829 21.8642C0.0244379 23.2374 0 23.643 0 25.5049C0 27.3668 0.0244379 27.7724 0.224829 29.1456C1.58358 38.5333 8.26491 46.4207 17.3265 49.343C18.9492 49.8659 20.6598 50.2227 22.6051 50.4377C23.3627 50.5208 26.6373 50.5208 27.3949 50.4377C30.7527 50.0663 33.5973 49.2355 36.4027 47.8037C36.8328 47.5838 36.9159 47.5251 36.8573 47.4762C36.8182 47.4469 34.9853 44.9888 32.7859 42.0176L28.7879 36.6176L23.7781 29.2043C21.0215 25.1286 18.7537 21.7958 18.7341 21.7958C18.7146 21.7909 18.695 25.0846 18.6852 29.1065C18.6706 36.1485 18.6657 36.4319 18.5777 36.5981C18.4506 36.8375 18.3529 36.9353 18.1476 37.0428C17.9912 37.121 17.8544 37.1356 17.1163 37.1356H16.2708L16.0459 36.9939C15.8993 36.9011 15.7918 36.7789 15.7185 36.6372L15.6158 36.4173L15.6256 26.6191L15.6403 16.816L15.7918 16.6255C15.87 16.5228 16.0362 16.3909 16.1535 16.3274C16.3539 16.2296 16.4321 16.2198 17.2776 16.2198C18.2747 16.2198 18.4409 16.2589 18.6999 16.5424C18.7732 16.6206 21.4858 20.706 24.7312 25.6271C27.9765 30.5481 32.4145 37.2676 34.5943 40.5662L38.5533 46.5624L38.7537 46.4305C40.5279 45.2772 42.4047 43.6352 43.8905 41.9248C47.0528 38.2938 49.0909 33.8663 49.7752 29.1456C49.9756 27.7724 50 27.3668 50 25.5049C50 23.643 49.9756 23.2374 49.7752 21.8642C48.4164 12.4765 41.7351 4.5891 32.6735 1.66676C31.0753 1.14875 29.3744 0.792007 27.4682 0.576984C26.999 0.528116 23.7683 0.47436 23.3627 0.513455ZM33.5973 15.6334C33.8319 15.7507 34.0225 15.9755 34.0909 16.2101C34.13 16.3371 34.1398 19.0542 34.13 25.1775L34.1153 33.9641L32.566 31.589L31.0117 29.214V22.8269C31.0117 18.6975 31.0313 16.3762 31.0606 16.2638C31.1388 15.9902 31.3099 15.7751 31.5445 15.6481C31.7449 15.5455 31.8182 15.5357 32.5855 15.5357C33.3089 15.5357 33.436 15.5455 33.5973 15.6334Z" fill="white"/>
</svg>
