<svg width="50" height="51" viewBox="0 0 50 51" fill="none" xmlns="http://www.w3.org/2000/svg">
<path d="M41.11 16.706C40.5778 16.5009 40.0412 16.3108 39.5006 16.1359C39.5914 15.7188 39.675 15.3068 39.7492 14.902C40.9676 8.2546 40.1711 2.89935 37.4506 1.13614C34.8422 -0.554186 30.5764 1.20836 26.2682 5.42254C25.8436 5.83859 25.4284 6.26665 25.023 6.70631C24.7517 6.41397 24.4755 6.12729 24.1947 5.84644C19.6795 1.34051 15.1537 -0.558577 12.4361 1.20968C9.83008 2.90527 9.0584 7.93959 10.1553 14.2395C10.2644 14.8634 10.3876 15.4841 10.5248 16.101C9.88418 16.3056 9.26602 16.5234 8.67441 16.7552C3.38066 18.8297 0 22.0806 0 25.4527C0 28.9354 3.6293 32.4287 9.14297 34.5468C9.58998 34.7178 10.0407 34.8763 10.4947 35.0221C10.3473 35.6866 10.2164 36.3555 10.1021 37.0281C9.05645 43.2187 9.87305 48.134 12.4721 49.8188C15.1564 51.5588 19.6619 49.7705 24.0488 45.4602C24.4045 45.1097 24.7524 44.7494 25.0922 44.3795C25.5312 44.8555 25.9819 45.3177 26.4438 45.7656C30.6934 49.8755 34.8902 51.535 37.4867 49.8456C40.1686 48.1006 41.0402 42.8202 39.9086 36.3959C39.8194 35.8926 39.7195 35.3918 39.6088 34.8939C39.9252 34.7885 40.2357 34.6801 40.5385 34.5673C46.2705 32.4328 50 28.9819 50 25.4527C50 22.0683 46.5102 18.7954 41.11 16.706ZM39.8668 32.2886C39.5931 32.3902 39.3131 32.4886 39.027 32.5839C38.3941 30.3322 37.5402 27.9381 36.4951 25.4643C37.4924 23.0496 38.3135 20.686 38.9285 18.449C39.44 18.6154 39.9363 18.7908 40.4148 18.9759C45.0418 20.7663 47.8641 23.4131 47.8641 25.4527C47.8641 27.6251 44.816 30.4453 39.8668 32.2886ZM37.8133 36.8621C38.3137 39.7028 38.385 42.2712 38.0535 44.2792C37.7559 46.0834 37.157 47.2862 36.4164 47.768C34.8408 48.7932 31.4711 47.4607 27.8369 43.9457C27.4073 43.5293 26.9881 43.0996 26.5797 42.6571C27.9887 40.9253 29.3967 38.9121 30.7709 36.676C33.1881 36.435 35.4717 36.0407 37.5426 35.5026C37.6448 35.9654 37.735 36.4186 37.8133 36.8621ZM17.0461 47.5909C15.5066 48.2018 14.2805 48.2194 13.5393 47.7391C11.9621 46.7167 11.3064 42.7699 12.2008 37.4759C12.3071 36.8504 12.4288 36.2282 12.5658 35.6102C14.6139 36.1195 16.8809 36.4857 19.3037 36.7065C20.6873 38.8945 22.1359 40.9055 23.5959 42.6665C23.2856 43.004 22.968 43.3328 22.6434 43.6526C20.7033 45.5585 18.7594 46.9108 17.0461 47.5909ZM9.83398 32.2752C7.3959 31.3385 5.38242 30.1213 4.00234 28.7929C2.76211 27.5994 2.13613 26.4142 2.13613 25.4527C2.13613 23.4063 4.85039 20.7962 9.37754 19.0222C9.92695 18.8071 10.502 18.604 11.0986 18.4135C11.7244 20.7009 12.5451 23.0926 13.5355 25.5111C12.5322 27.9653 11.6998 30.3952 11.068 32.7097C10.6535 32.5762 10.2421 32.4313 9.83398 32.2752ZM12.2516 13.7782C11.3119 8.38083 11.9359 4.30934 13.5064 3.28746C15.1791 2.19907 18.8779 3.75087 22.7766 7.6417C23.0308 7.89598 23.2809 8.15542 23.5268 8.4199C22.074 10.1732 20.6387 12.1694 19.2674 14.3444C16.9158 14.5894 14.6648 14.9828 12.5953 15.5098C12.4678 14.936 12.3532 14.3585 12.2516 13.7782ZM33.8193 19.7644C33.3305 18.8154 32.8236 17.8783 32.2988 16.9538C33.8941 17.1806 35.4227 17.4816 36.858 17.8495C36.4271 19.402 35.89 21.0249 35.2578 22.6889C34.7957 21.7034 34.3161 20.7284 33.8193 19.7644ZM25.024 10.1359C26.0092 11.3356 26.9959 12.6749 27.9664 14.1282C25.9977 14.0236 24.0256 14.0232 22.0568 14.1268C23.0283 12.687 24.0234 11.3494 25.024 10.1359ZM16.1723 19.7806C15.6817 20.7368 15.2111 21.7058 14.7607 22.6867C14.1389 21.0286 13.6066 19.3982 13.1721 17.8238C14.5986 17.4651 16.1199 17.1718 17.7051 16.9492C17.1745 17.8794 16.6634 18.8236 16.1723 19.7806ZM17.7506 34.1267C16.1129 33.9212 14.5688 33.6431 13.1426 33.294C13.584 31.6915 14.1279 30.0264 14.7633 28.3328C15.2154 29.3144 15.688 30.284 16.1807 31.2406C16.6873 32.2241 17.2119 33.1873 17.7506 34.1267ZM25.083 40.9385C24.0705 39.7109 23.0607 38.3527 22.0746 36.892C23.032 36.9342 24.008 36.9557 25 36.9557C26.0191 36.9557 27.0266 36.93 28.0182 36.8804C27.0445 38.3674 26.0615 39.7276 25.083 40.9385ZM35.2779 28.2463C35.9463 29.9586 36.5096 31.6149 36.9568 33.19C35.5072 33.5618 33.942 33.8613 32.2928 34.0836C32.8213 33.142 33.333 32.1887 33.8277 31.2241C34.3308 30.2438 34.8143 29.2509 35.2779 28.2463ZM31.9775 30.0247C31.2201 31.5034 30.4201 32.9541 29.5789 34.3745C28.055 34.4959 26.5277 34.5562 25 34.5552C23.4439 34.5552 21.9305 34.5007 20.473 34.3945C19.6098 32.9775 18.7945 31.5242 18.0291 30.0378C17.2672 28.5594 16.5557 27.049 15.8959 25.5097C16.554 23.9702 17.2635 22.459 18.0229 20.9795L18.0227 20.9797C18.7816 19.4997 19.5903 18.0526 20.4471 16.6417C21.934 16.5152 23.4588 16.4494 24.9998 16.4494C26.5479 16.4494 28.0748 16.5159 29.5613 16.6432C30.4094 18.0521 31.213 19.4941 31.9705 20.9667C32.7322 22.4431 33.4511 23.9469 34.126 25.4757C33.458 27.0202 32.7414 28.5375 31.9775 30.0247ZM36.3838 3.21568C38.058 4.301 38.7092 8.67762 37.6572 14.417C37.5898 14.7835 37.5149 15.156 37.4326 15.5344C35.358 14.9961 33.1055 14.596 30.7471 14.3472C29.3732 12.1483 27.9496 10.1491 26.5205 8.41837C26.8951 8.01259 27.2785 7.61733 27.6705 7.23294C31.3619 3.62245 34.8119 2.19687 36.3838 3.21568ZM25 20.4344C27.4658 20.4344 29.4648 22.6812 29.4648 25.4527C29.4648 28.2241 27.4658 30.471 25 30.471C22.5342 30.471 20.5352 28.2241 20.5352 25.4527C20.5352 22.6812 22.5342 20.4344 25 20.4344Z" fill="#2EE0FF"/>
</svg>
