<svg width="50" height="51" viewBox="0 0 50 51" fill="none" xmlns="http://www.w3.org/2000/svg">
<path d="M34.6447 35.4196C36.4898 35.2184 37.8896 33.5429 37.826 31.5321C37.7625 29.5215 36.1717 27.9128 34.2629 27.9128H34.1357C32.1631 27.9799 30.6361 29.7225 30.6998 31.8001C30.7635 32.8056 31.1451 33.6768 31.7178 34.28C29.5545 38.7708 26.2459 42.0549 21.283 44.8029C17.9107 46.6795 14.4113 47.3498 10.9119 46.8808C8.04863 46.4785 5.82168 45.1382 4.42168 42.9262C2.38574 39.6421 2.19492 36.0897 3.91289 32.5375C5.12187 29.9905 7.03047 28.1138 8.23945 27.1755C7.98496 26.3042 7.60312 24.8297 7.4123 23.7574C-1.81367 30.7949 -0.859182 40.3123 1.94043 44.8029C4.04004 48.1542 8.30312 50.2319 13.0115 50.2319C14.284 50.2319 15.5564 50.0978 16.8291 49.7629C24.9734 48.0872 31.1453 42.9932 34.6447 35.4196ZM45.8432 27.1086C41.0074 21.1434 33.8812 17.8593 25.7369 17.8593H24.7189C24.1463 16.6529 22.9373 15.8485 21.6012 15.8485H21.4738C19.5016 15.9155 17.9746 17.6581 18.0381 19.736C18.1018 21.7466 19.6924 23.3552 21.6012 23.3552H21.7283C23.1281 23.2882 24.3371 22.3498 24.8461 21.0763H25.9914C30.8271 21.0763 35.4082 22.5508 39.5441 25.4329C42.7254 27.6448 45.016 30.5269 46.2885 34.012C47.3701 36.827 47.3064 39.575 46.1611 41.921C44.3797 45.4731 41.3892 47.4169 37.4443 47.4169C34.8992 47.4169 32.4814 46.6125 31.2088 46.0093C30.509 46.6795 29.2363 47.7518 28.3455 48.4223C31.0816 49.7627 33.8812 50.5 36.5535 50.5C42.6617 50.5 47.1793 46.9476 48.8973 43.3954C50.7424 39.5079 50.615 32.8056 45.8432 27.1086ZM13.5205 36.5587C13.5842 38.5696 15.1748 40.178 17.0836 40.178H17.2109C19.1834 40.1111 20.7103 38.3684 20.6467 36.2907C20.5832 34.2798 18.9924 32.6714 17.0836 32.6714H16.9564C16.8291 32.6714 16.6381 32.6714 16.5111 32.7383C13.9023 28.1807 12.8207 23.2211 13.2025 17.8591C13.4568 13.8376 14.7295 10.3523 16.9564 7.47022C18.8016 4.99032 22.3646 3.7839 24.7826 3.71704C31.5269 3.5829 34.39 12.43 34.581 15.9824C35.4082 16.1834 36.808 16.6527 37.7625 16.9878C36.9988 6.13008 30.6361 0.5 24.5281 0.5C18.8016 0.5 13.5205 4.85659 11.4207 11.2909C8.49394 19.8699 10.4027 28.1138 13.9658 34.6152C13.6478 35.0843 13.4568 35.8214 13.5205 36.5587Z" fill="#A722FF"/>
</svg>
