<svg width="50" height="51" viewBox="0 0 50 51" fill="none" xmlns="http://www.w3.org/2000/svg">
<g clip-path="url(#clip0_7_636)">
<path d="M25.0016 10.501C18.3348 10.501 14.1696 13.833 12.5016 20.4998C15.0008 17.1674 17.9184 15.9178 21.2508 16.751C23.1535 17.2252 24.5133 18.6049 26.0192 20.1338C28.4699 22.6209 31.3067 25.5002 37.5016 25.5002C44.168 25.5002 48.3336 22.1678 50.0016 15.4994C47.5016 18.8335 44.5851 20.0838 41.252 19.2502C39.3496 18.7756 37.9914 17.3963 36.4836 15.8674C34.0344 13.3803 31.1985 10.501 25.0016 10.501ZM12.5016 25.5002C5.83518 25.5002 1.66956 28.8326 0.00158691 35.501C2.50133 32.1669 5.41773 30.9166 8.75081 31.7502C10.6535 32.2248 12.0133 33.6041 13.5192 35.133C15.9699 37.6201 18.8067 40.4994 25.0016 40.4994C31.668 40.4994 35.8336 37.1674 37.5016 30.5006C35.0016 33.8331 32.0851 35.0828 28.752 34.2494C26.8496 33.7752 25.4914 32.3955 23.9836 30.8666C21.5344 28.3795 18.6985 25.5002 12.5016 25.5002Z" fill="#1ADDFF"/>
</g>
<defs>
<clipPath id="clip0_7_636">
<rect width="50" height="50" fill="white" transform="translate(0 0.5)"/>
</clipPath>
</defs>
</svg>
